<?xml version="1.0" encoding="UTF-8"?>
<svg xmlns="http://www.w3.org/2000/svg" xmlns:xlink="http://www.w3.org/1999/xlink" width="1920" height="1080" viewBox="0 0 1920 1080">
<defs>
<g>
<g id="glyph-0-0">
<path d="M 0 0 L 0 -0.25 L 0.109375 -0.25 C 0.222656 -0.25 0.304688 -0.273438 0.359375 -0.328125 C 0.421875 -0.390625 0.484375 -0.515625 0.546875 -0.703125 L 1.84375 -4.15625 L 2.296875 -4.15625 L 3.625 -0.546875 C 3.664062 -0.429688 3.710938 -0.351562 3.765625 -0.3125 C 3.828125 -0.269531 3.914062 -0.25 4.03125 -0.25 L 4.109375 -0.25 L 4.109375 0 L 2.5 0 L 2.5 -0.25 L 2.640625 -0.25 C 2.867188 -0.25 2.984375 -0.34375 2.984375 -0.53125 C 2.984375 -0.5625 2.976562 -0.59375 2.96875 -0.625 C 2.96875 -0.65625 2.957031 -0.691406 2.9375 -0.734375 L 2.703125 -1.390625 L 1.171875 -1.390625 L 0.953125 -0.78125 C 0.921875 -0.6875 0.90625 -0.601562 0.90625 -0.53125 C 0.90625 -0.34375 1.03125 -0.25 1.28125 -0.25 L 1.421875 -0.25 L 1.421875 0 Z M 1.28125 -1.6875 L 2.609375 -1.6875 L 2.25 -2.703125 C 2.1875 -2.867188 2.128906 -3.03125 2.078125 -3.1875 C 2.023438 -3.34375 1.984375 -3.488281 1.953125 -3.625 C 1.921875 -3.488281 1.882812 -3.351562 1.84375 -3.21875 C 1.800781 -3.09375 1.75 -2.9375 1.6875 -2.75 Z "/>
</g>
<g id="glyph-0-1">
<path d="M 0.15625 0 L 0.15625 -0.25 L 0.203125 -0.25 C 0.335938 -0.25 0.453125 -0.269531 0.546875 -0.3125 C 0.640625 -0.363281 0.6875 -0.484375 0.6875 -0.671875 L 0.6875 -2.484375 C 0.6875 -2.648438 0.640625 -2.753906 0.546875 -2.796875 C 0.453125 -2.847656 0.34375 -2.875 0.21875 -2.875 L 0.1875 -2.875 L 0.1875 -3.125 L 1.140625 -3.125 L 1.21875 -2.65625 L 1.234375 -2.65625 C 1.359375 -2.875 1.492188 -3.015625 1.640625 -3.078125 C 1.796875 -3.148438 1.96875 -3.1875 2.15625 -3.1875 C 2.457031 -3.1875 2.691406 -3.09375 2.859375 -2.90625 C 3.035156 -2.726562 3.125 -2.441406 3.125 -2.046875 L 3.125 -0.671875 C 3.125 -0.484375 3.164062 -0.363281 3.25 -0.3125 C 3.332031 -0.269531 3.4375 -0.25 3.5625 -0.25 L 3.59375 -0.25 L 3.59375 0 L 2.578125 0 L 2.578125 -2.015625 C 2.578125 -2.265625 2.53125 -2.457031 2.4375 -2.59375 C 2.34375 -2.738281 2.175781 -2.8125 1.9375 -2.8125 C 1.757812 -2.8125 1.617188 -2.765625 1.515625 -2.671875 C 1.421875 -2.585938 1.347656 -2.472656 1.296875 -2.328125 C 1.253906 -2.179688 1.234375 -2.023438 1.234375 -1.859375 L 1.234375 -0.640625 C 1.234375 -0.460938 1.28125 -0.351562 1.375 -0.3125 C 1.46875 -0.269531 1.578125 -0.25 1.703125 -0.25 L 1.734375 -0.25 L 1.734375 0 Z "/>
</g>
<g id="glyph-0-2">
<path d="M 1.34375 1.40625 C 0.9375 1.40625 0.632812 1.328125 0.4375 1.171875 C 0.238281 1.023438 0.140625 0.816406 0.140625 0.546875 C 0.140625 0.316406 0.210938 0.144531 0.359375 0.03125 C 0.503906 -0.0820312 0.671875 -0.160156 0.859375 -0.203125 C 0.785156 -0.234375 0.710938 -0.285156 0.640625 -0.359375 C 0.578125 -0.441406 0.546875 -0.546875 0.546875 -0.671875 C 0.546875 -0.785156 0.570312 -0.882812 0.625 -0.96875 C 0.6875 -1.0625 0.785156 -1.144531 0.921875 -1.21875 C 0.753906 -1.289062 0.625 -1.40625 0.53125 -1.5625 C 0.4375 -1.726562 0.390625 -1.910156 0.390625 -2.109375 C 0.390625 -2.441406 0.476562 -2.703125 0.65625 -2.890625 C 0.84375 -3.085938 1.117188 -3.1875 1.484375 -3.1875 C 1.628906 -3.1875 1.765625 -3.164062 1.890625 -3.125 C 2.015625 -3.082031 2.101562 -3.035156 2.15625 -2.984375 C 2.207031 -3.046875 2.28125 -3.113281 2.375 -3.1875 C 2.476562 -3.257812 2.59375 -3.296875 2.71875 -3.296875 C 2.832031 -3.296875 2.914062 -3.265625 2.96875 -3.203125 C 3.03125 -3.148438 3.0625 -3.082031 3.0625 -3 C 3.0625 -2.914062 3.035156 -2.84375 2.984375 -2.78125 C 2.941406 -2.726562 2.863281 -2.703125 2.75 -2.703125 C 2.75 -2.742188 2.738281 -2.785156 2.71875 -2.828125 C 2.695312 -2.867188 2.644531 -2.890625 2.5625 -2.890625 C 2.476562 -2.890625 2.394531 -2.867188 2.3125 -2.828125 C 2.375 -2.742188 2.425781 -2.644531 2.46875 -2.53125 C 2.519531 -2.425781 2.546875 -2.289062 2.546875 -2.125 C 2.546875 -1.832031 2.457031 -1.59375 2.28125 -1.40625 C 2.101562 -1.21875 1.835938 -1.125 1.484375 -1.125 C 1.441406 -1.125 1.390625 -1.125 1.328125 -1.125 C 1.265625 -1.132812 1.21875 -1.140625 1.1875 -1.140625 C 1.113281 -1.109375 1.046875 -1.0625 0.984375 -1 C 0.929688 -0.945312 0.90625 -0.875 0.90625 -0.78125 C 0.90625 -0.707031 0.925781 -0.648438 0.96875 -0.609375 C 1.019531 -0.578125 1.117188 -0.5625 1.265625 -0.5625 L 1.921875 -0.5625 C 2.273438 -0.5625 2.523438 -0.476562 2.671875 -0.3125 C 2.816406 -0.144531 2.890625 0.0625 2.890625 0.3125 C 2.890625 0.644531 2.765625 0.910156 2.515625 1.109375 C 2.265625 1.304688 1.875 1.40625 1.34375 1.40625 Z M 1.46875 -1.40625 C 1.664062 -1.40625 1.800781 -1.460938 1.875 -1.578125 C 1.957031 -1.691406 2 -1.875 2 -2.125 C 2 -2.394531 1.957031 -2.585938 1.875 -2.703125 C 1.789062 -2.828125 1.65625 -2.890625 1.46875 -2.890625 C 1.28125 -2.890625 1.144531 -2.828125 1.0625 -2.703125 C 0.976562 -2.578125 0.9375 -2.382812 0.9375 -2.125 C 0.9375 -1.875 0.976562 -1.691406 1.0625 -1.578125 C 1.144531 -1.460938 1.28125 -1.40625 1.46875 -1.40625 Z M 1.359375 1.109375 C 1.640625 1.109375 1.851562 1.078125 2 1.015625 C 2.15625 0.960938 2.257812 0.878906 2.3125 0.765625 C 2.375 0.660156 2.40625 0.539062 2.40625 0.40625 C 2.40625 0.226562 2.351562 0.109375 2.25 0.046875 C 2.15625 -0.0117188 2.007812 -0.046875 1.8125 -0.046875 L 1.25 -0.046875 C 1.132812 -0.046875 1.03125 -0.03125 0.9375 0 C 0.84375 0.03125 0.765625 0.0820312 0.703125 0.15625 C 0.640625 0.238281 0.609375 0.359375 0.609375 0.515625 C 0.609375 0.628906 0.628906 0.726562 0.671875 0.8125 C 0.710938 0.90625 0.785156 0.976562 0.890625 1.03125 C 1.003906 1.082031 1.160156 1.109375 1.359375 1.109375 Z "/>
</g>
<g id="glyph-0-3">
<path d="M 1.59375 0.0625 C 1.28125 0.0625 1.039062 -0.0234375 0.875 -0.203125 C 0.707031 -0.390625 0.625 -0.679688 0.625 -1.078125 L 0.625 -2.484375 C 0.625 -2.648438 0.578125 -2.753906 0.484375 -2.796875 C 0.390625 -2.847656 0.28125 -2.875 0.15625 -2.875 L 0.140625 -2.875 L 0.140625 -3.125 L 1.171875 -3.125 L 1.171875 -1.109375 C 1.171875 -0.859375 1.210938 -0.660156 1.296875 -0.515625 C 1.390625 -0.378906 1.554688 -0.3125 1.796875 -0.3125 C 2.046875 -0.3125 2.226562 -0.394531 2.34375 -0.5625 C 2.46875 -0.738281 2.53125 -0.972656 2.53125 -1.265625 L 2.53125 -2.453125 C 2.53125 -2.640625 2.484375 -2.753906 2.390625 -2.796875 C 2.296875 -2.847656 2.179688 -2.875 2.046875 -2.875 L 2.03125 -2.875 L 2.03125 -3.125 L 3.078125 -3.125 L 3.078125 -0.640625 C 3.078125 -0.460938 3.125 -0.351562 3.21875 -0.3125 C 3.3125 -0.269531 3.421875 -0.25 3.546875 -0.25 L 3.5625 -0.25 L 3.5625 0 L 2.640625 0 L 2.5625 -0.46875 L 2.53125 -0.46875 C 2.414062 -0.25 2.273438 -0.101562 2.109375 -0.03125 C 1.953125 0.0273438 1.78125 0.0625 1.59375 0.0625 Z "/>
</g>
<g id="glyph-0-4">
<path d="M 0.078125 0 L 0.078125 -0.25 L 0.15625 -0.25 C 0.28125 -0.25 0.390625 -0.269531 0.484375 -0.3125 C 0.578125 -0.363281 0.625 -0.484375 0.625 -0.671875 L 0.625 -3.78125 C 0.625 -3.957031 0.578125 -4.066406 0.484375 -4.109375 C 0.390625 -4.160156 0.28125 -4.1875 0.15625 -4.1875 L 0.078125 -4.1875 L 0.078125 -4.421875 L 1.171875 -4.421875 L 1.171875 -0.671875 C 1.171875 -0.484375 1.21875 -0.363281 1.3125 -0.3125 C 1.40625 -0.269531 1.519531 -0.25 1.65625 -0.25 L 1.734375 -0.25 L 1.734375 0 Z "/>
</g>
<g id="glyph-0-5">
<path d="M 1.1875 0.0625 C 0.925781 0.0625 0.710938 -0.0078125 0.546875 -0.15625 C 0.378906 -0.3125 0.296875 -0.550781 0.296875 -0.875 C 0.296875 -1.1875 0.40625 -1.414062 0.625 -1.5625 C 0.84375 -1.707031 1.175781 -1.789062 1.625 -1.8125 L 2.109375 -1.828125 L 2.109375 -2.171875 C 2.109375 -2.316406 2.09375 -2.441406 2.0625 -2.546875 C 2.039062 -2.648438 1.988281 -2.734375 1.90625 -2.796875 C 1.832031 -2.859375 1.71875 -2.890625 1.5625 -2.890625 C 1.414062 -2.890625 1.300781 -2.863281 1.21875 -2.8125 C 1.144531 -2.757812 1.09375 -2.679688 1.0625 -2.578125 C 1.039062 -2.484375 1.03125 -2.375 1.03125 -2.25 C 0.863281 -2.25 0.738281 -2.273438 0.65625 -2.328125 C 0.570312 -2.390625 0.53125 -2.488281 0.53125 -2.625 C 0.53125 -2.757812 0.578125 -2.867188 0.671875 -2.953125 C 0.773438 -3.035156 0.90625 -3.09375 1.0625 -3.125 C 1.21875 -3.164062 1.390625 -3.1875 1.578125 -3.1875 C 1.941406 -3.1875 2.210938 -3.109375 2.390625 -2.953125 C 2.566406 -2.804688 2.65625 -2.546875 2.65625 -2.171875 L 2.65625 -0.671875 C 2.65625 -0.503906 2.679688 -0.390625 2.734375 -0.328125 C 2.785156 -0.273438 2.878906 -0.25 3.015625 -0.25 L 3.03125 -0.25 L 3.03125 0 L 2.25 0 L 2.15625 -0.5 L 2.109375 -0.5 C 2.023438 -0.394531 1.941406 -0.300781 1.859375 -0.21875 C 1.785156 -0.132812 1.695312 -0.0664062 1.59375 -0.015625 C 1.488281 0.0351562 1.351562 0.0625 1.1875 0.0625 Z M 1.328125 -0.296875 C 1.566406 -0.296875 1.753906 -0.367188 1.890625 -0.515625 C 2.035156 -0.660156 2.109375 -0.859375 2.109375 -1.109375 L 2.109375 -1.578125 L 1.734375 -1.5625 C 1.398438 -1.550781 1.171875 -1.484375 1.046875 -1.359375 C 0.921875 -1.242188 0.859375 -1.070312 0.859375 -0.84375 C 0.859375 -0.476562 1.015625 -0.296875 1.328125 -0.296875 Z "/>
</g>
<g id="glyph-0-6">
<path d="M 0.1875 0 L 0.1875 -0.25 L 0.203125 -0.25 C 0.335938 -0.25 0.453125 -0.269531 0.546875 -0.3125 C 0.640625 -0.363281 0.6875 -0.484375 0.6875 -0.671875 L 0.6875 -2.484375 C 0.6875 -2.648438 0.640625 -2.753906 0.546875 -2.796875 C 0.453125 -2.847656 0.335938 -2.875 0.203125 -2.875 L 0.1875 -2.875 L 0.1875 -3.125 L 1.09375 -3.125 L 1.203125 -2.546875 L 1.234375 -2.546875 C 1.285156 -2.660156 1.335938 -2.765625 1.390625 -2.859375 C 1.453125 -2.960938 1.53125 -3.039062 1.625 -3.09375 C 1.71875 -3.15625 1.851562 -3.1875 2.03125 -3.1875 C 2.238281 -3.1875 2.394531 -3.144531 2.5 -3.0625 C 2.601562 -2.988281 2.65625 -2.882812 2.65625 -2.75 C 2.65625 -2.632812 2.613281 -2.535156 2.53125 -2.453125 C 2.445312 -2.378906 2.304688 -2.34375 2.109375 -2.34375 C 2.109375 -2.5 2.082031 -2.613281 2.03125 -2.6875 C 1.988281 -2.757812 1.914062 -2.796875 1.8125 -2.796875 C 1.695312 -2.796875 1.601562 -2.753906 1.53125 -2.671875 C 1.457031 -2.585938 1.398438 -2.476562 1.359375 -2.34375 C 1.316406 -2.207031 1.285156 -2.066406 1.265625 -1.921875 C 1.242188 -1.785156 1.234375 -1.660156 1.234375 -1.546875 L 1.234375 -0.640625 C 1.234375 -0.460938 1.28125 -0.351562 1.375 -0.3125 C 1.46875 -0.269531 1.582031 -0.25 1.71875 -0.25 L 1.875 -0.25 L 1.875 0 Z "/>
</g>
<g id="glyph-0-7">
<path d="M 0.21875 0 L 0.21875 -0.25 L 0.296875 -0.25 C 0.421875 -0.25 0.53125 -0.269531 0.625 -0.3125 C 0.726562 -0.351562 0.78125 -0.460938 0.78125 -0.640625 L 0.78125 -3.515625 C 0.78125 -3.691406 0.726562 -3.800781 0.625 -3.84375 C 0.53125 -3.894531 0.421875 -3.921875 0.296875 -3.921875 L 0.21875 -3.921875 L 0.21875 -4.15625 L 1.546875 -4.15625 L 2.75 -0.828125 L 3.953125 -4.15625 L 5.25 -4.15625 L 5.25 -3.921875 L 5.171875 -3.921875 C 5.035156 -3.921875 4.921875 -3.894531 4.828125 -3.84375 C 4.734375 -3.789062 4.6875 -3.675781 4.6875 -3.5 L 4.6875 -0.671875 C 4.6875 -0.484375 4.734375 -0.363281 4.828125 -0.3125 C 4.921875 -0.269531 5.035156 -0.25 5.171875 -0.25 L 5.25 -0.25 L 5.25 0 L 3.6875 0 L 3.6875 -0.25 L 3.71875 -0.25 C 3.84375 -0.25 3.941406 -0.269531 4.015625 -0.3125 C 4.085938 -0.351562 4.125 -0.453125 4.125 -0.609375 L 4.125 -3.71875 L 2.796875 0 L 2.484375 0 L 1.125 -3.71875 L 1.125 -0.671875 C 1.125 -0.484375 1.160156 -0.363281 1.234375 -0.3125 C 1.316406 -0.269531 1.421875 -0.25 1.546875 -0.25 L 1.5625 -0.25 L 1.5625 0 Z "/>
</g>
<g id="glyph-0-8">
<path d="M 0.9375 -3.703125 C 0.84375 -3.703125 0.765625 -3.726562 0.703125 -3.78125 C 0.640625 -3.84375 0.609375 -3.9375 0.609375 -4.0625 C 0.609375 -4.195312 0.640625 -4.289062 0.703125 -4.34375 C 0.765625 -4.394531 0.84375 -4.421875 0.9375 -4.421875 C 1.03125 -4.421875 1.109375 -4.394531 1.171875 -4.34375 C 1.234375 -4.289062 1.265625 -4.195312 1.265625 -4.0625 C 1.265625 -3.9375 1.234375 -3.84375 1.171875 -3.78125 C 1.109375 -3.726562 1.03125 -3.703125 0.9375 -3.703125 Z M 0.140625 0 L 0.140625 -0.25 L 0.203125 -0.25 C 0.335938 -0.25 0.453125 -0.269531 0.546875 -0.3125 C 0.640625 -0.351562 0.6875 -0.460938 0.6875 -0.640625 L 0.6875 -2.484375 C 0.6875 -2.648438 0.640625 -2.753906 0.546875 -2.796875 C 0.453125 -2.847656 0.335938 -2.875 0.203125 -2.875 L 0.1875 -2.875 L 0.1875 -3.125 L 1.234375 -3.125 L 1.234375 -0.671875 C 1.234375 -0.484375 1.28125 -0.363281 1.375 -0.3125 C 1.46875 -0.269531 1.582031 -0.25 1.71875 -0.25 L 1.796875 -0.25 L 1.796875 0 Z "/>
</g>
<g id="glyph-0-9">
<path d="M 0.15625 0 L 0.15625 -0.25 L 0.234375 -0.25 C 0.367188 -0.25 0.484375 -0.269531 0.578125 -0.3125 C 0.671875 -0.363281 0.71875 -0.484375 0.71875 -0.671875 L 0.71875 -2.84375 L 0.1875 -2.84375 L 0.1875 -3.125 L 0.71875 -3.125 L 0.71875 -3.421875 C 0.71875 -3.765625 0.804688 -4.023438 0.984375 -4.203125 C 1.171875 -4.390625 1.425781 -4.484375 1.75 -4.484375 C 2.050781 -4.484375 2.257812 -4.445312 2.375 -4.375 C 2.5 -4.300781 2.5625 -4.203125 2.5625 -4.078125 C 2.5625 -3.972656 2.515625 -3.890625 2.421875 -3.828125 C 2.335938 -3.773438 2.222656 -3.75 2.078125 -3.75 C 2.078125 -3.863281 2.050781 -3.96875 2 -4.0625 C 1.945312 -4.164062 1.847656 -4.21875 1.703125 -4.21875 C 1.535156 -4.21875 1.421875 -4.148438 1.359375 -4.015625 C 1.296875 -3.890625 1.265625 -3.707031 1.265625 -3.46875 L 1.265625 -3.125 L 2.078125 -3.125 L 2.078125 -2.84375 L 1.265625 -2.84375 L 1.265625 -0.671875 C 1.265625 -0.484375 1.304688 -0.363281 1.390625 -0.3125 C 1.484375 -0.269531 1.597656 -0.25 1.734375 -0.25 L 1.953125 -0.25 L 1.953125 0 Z "/>
</g>
<g id="glyph-0-10">
<path d="M 1.671875 0.0625 C 1.253906 0.0625 0.925781 -0.0703125 0.6875 -0.34375 C 0.445312 -0.613281 0.328125 -1.019531 0.328125 -1.5625 C 0.328125 -2.113281 0.441406 -2.519531 0.671875 -2.78125 C 0.898438 -3.050781 1.238281 -3.1875 1.6875 -3.1875 C 2.101562 -3.1875 2.429688 -3.050781 2.671875 -2.78125 C 2.921875 -2.519531 3.046875 -2.113281 3.046875 -1.5625 C 3.046875 -1.019531 2.925781 -0.613281 2.6875 -0.34375 C 2.457031 -0.0703125 2.117188 0.0625 1.671875 0.0625 Z M 1.6875 -0.25 C 1.976562 -0.25 2.179688 -0.359375 2.296875 -0.578125 C 2.421875 -0.804688 2.484375 -1.132812 2.484375 -1.5625 C 2.484375 -2 2.421875 -2.328125 2.296875 -2.546875 C 2.171875 -2.765625 1.960938 -2.875 1.671875 -2.875 C 1.378906 -2.875 1.175781 -2.765625 1.0625 -2.546875 C 0.945312 -2.328125 0.890625 -2 0.890625 -1.5625 C 0.890625 -1.132812 0.945312 -0.804688 1.0625 -0.578125 C 1.1875 -0.359375 1.394531 -0.25 1.6875 -0.25 Z "/>
</g>
<g id="glyph-0-11">
<path d="M 1.515625 0.0625 C 1.128906 0.0625 0.832031 -0.0664062 0.625 -0.328125 C 0.425781 -0.585938 0.328125 -1 0.328125 -1.5625 C 0.328125 -2.125 0.425781 -2.535156 0.625 -2.796875 C 0.832031 -3.054688 1.128906 -3.1875 1.515625 -3.1875 C 1.734375 -3.1875 1.910156 -3.132812 2.046875 -3.03125 C 2.191406 -2.9375 2.3125 -2.816406 2.40625 -2.671875 L 2.4375 -2.671875 C 2.425781 -2.765625 2.414062 -2.867188 2.40625 -2.984375 C 2.40625 -3.109375 2.40625 -3.21875 2.40625 -3.3125 L 2.40625 -3.78125 C 2.40625 -3.957031 2.351562 -4.066406 2.25 -4.109375 C 2.15625 -4.160156 2.046875 -4.1875 1.921875 -4.1875 L 1.875 -4.1875 L 1.875 -4.421875 L 2.953125 -4.421875 L 2.953125 -0.640625 C 2.953125 -0.472656 3 -0.363281 3.09375 -0.3125 C 3.1875 -0.269531 3.296875 -0.25 3.421875 -0.25 L 3.46875 -0.25 L 3.46875 0 L 2.484375 0 L 2.421875 -0.53125 L 2.40625 -0.53125 C 2.3125 -0.34375 2.195312 -0.195312 2.0625 -0.09375 C 1.925781 0.0078125 1.742188 0.0625 1.515625 0.0625 Z M 1.609375 -0.3125 C 1.910156 -0.3125 2.117188 -0.410156 2.234375 -0.609375 C 2.347656 -0.816406 2.40625 -1.132812 2.40625 -1.5625 C 2.40625 -1.957031 2.347656 -2.265625 2.234375 -2.484375 C 2.117188 -2.703125 1.910156 -2.8125 1.609375 -2.8125 C 1.347656 -2.8125 1.160156 -2.703125 1.046875 -2.484375 C 0.941406 -2.265625 0.890625 -1.953125 0.890625 -1.546875 C 0.890625 -1.140625 0.941406 -0.832031 1.046875 -0.625 C 1.160156 -0.414062 1.347656 -0.3125 1.609375 -0.3125 Z "/>
</g>
<g id="glyph-0-12">
<path d="M 0.84375 -2.359375 C 0.738281 -2.359375 0.648438 -2.382812 0.578125 -2.4375 C 0.503906 -2.5 0.46875 -2.601562 0.46875 -2.75 C 0.46875 -2.90625 0.503906 -3.007812 0.578125 -3.0625 C 0.648438 -3.125 0.738281 -3.15625 0.84375 -3.15625 C 0.9375 -3.15625 1.019531 -3.125 1.09375 -3.0625 C 1.164062 -3.007812 1.203125 -2.90625 1.203125 -2.75 C 1.203125 -2.601562 1.164062 -2.5 1.09375 -2.4375 C 1.019531 -2.382812 0.9375 -2.359375 0.84375 -2.359375 Z M 0.84375 0.046875 C 0.738281 0.046875 0.648438 0.0117188 0.578125 -0.046875 C 0.503906 -0.109375 0.46875 -0.210938 0.46875 -0.359375 C 0.46875 -0.503906 0.503906 -0.601562 0.578125 -0.65625 C 0.648438 -0.71875 0.738281 -0.75 0.84375 -0.75 C 0.9375 -0.75 1.019531 -0.71875 1.09375 -0.65625 C 1.164062 -0.601562 1.203125 -0.503906 1.203125 -0.359375 C 1.203125 -0.210938 1.164062 -0.109375 1.09375 -0.046875 C 1.019531 0.0117188 0.9375 0.046875 0.84375 0.046875 Z "/>
</g>
<g id="glyph-0-13">
</g>
<g id="glyph-0-14">
<path d="M 0.109375 0 L 0.109375 -0.25 L 0.15625 -0.25 C 0.28125 -0.25 0.390625 -0.269531 0.484375 -0.3125 C 0.578125 -0.363281 0.625 -0.484375 0.625 -0.671875 L 0.625 -3.78125 C 0.625 -3.957031 0.578125 -4.066406 0.484375 -4.109375 C 0.390625 -4.160156 0.28125 -4.1875 0.15625 -4.1875 L 0.109375 -4.1875 L 0.109375 -4.421875 L 1.171875 -4.421875 L 1.171875 -3.140625 C 1.171875 -3.078125 1.171875 -3.003906 1.171875 -2.921875 C 1.171875 -2.847656 1.164062 -2.785156 1.15625 -2.734375 C 1.15625 -2.679688 1.15625 -2.65625 1.15625 -2.65625 L 1.1875 -2.65625 C 1.363281 -3.007812 1.648438 -3.1875 2.046875 -3.1875 C 2.378906 -3.1875 2.632812 -3.09375 2.8125 -2.90625 C 2.988281 -2.726562 3.078125 -2.441406 3.078125 -2.046875 L 3.078125 -0.671875 C 3.078125 -0.484375 3.117188 -0.363281 3.203125 -0.3125 C 3.285156 -0.269531 3.390625 -0.25 3.515625 -0.25 L 3.53125 -0.25 L 3.53125 0 L 2.53125 0 L 2.53125 -2.015625 C 2.53125 -2.265625 2.476562 -2.457031 2.375 -2.59375 C 2.28125 -2.738281 2.113281 -2.8125 1.875 -2.8125 C 1.632812 -2.8125 1.457031 -2.722656 1.34375 -2.546875 C 1.226562 -2.378906 1.171875 -2.148438 1.171875 -1.859375 L 1.171875 -0.640625 C 1.171875 -0.460938 1.21875 -0.351562 1.3125 -0.3125 C 1.414062 -0.269531 1.53125 -0.25 1.65625 -0.25 L 1.671875 -0.25 L 1.671875 0 Z "/>
</g>
<g id="glyph-0-15">
<path d="M 0.109375 1.40625 L 0.109375 1.15625 L 0.15625 1.15625 C 0.28125 1.15625 0.390625 1.128906 0.484375 1.078125 C 0.578125 1.035156 0.625 0.921875 0.625 0.734375 L 0.625 -2.484375 C 0.625 -2.648438 0.578125 -2.753906 0.484375 -2.796875 C 0.390625 -2.847656 0.28125 -2.875 0.15625 -2.875 L 0.078125 -2.875 L 0.078125 -3.125 L 1.09375 -3.125 L 1.15625 -2.59375 L 1.171875 -2.59375 C 1.265625 -2.78125 1.378906 -2.925781 1.515625 -3.03125 C 1.660156 -3.132812 1.84375 -3.1875 2.0625 -3.1875 C 2.445312 -3.1875 2.742188 -3.054688 2.953125 -2.796875 C 3.160156 -2.535156 3.265625 -2.125 3.265625 -1.5625 C 3.265625 -1 3.160156 -0.585938 2.953125 -0.328125 C 2.742188 -0.0664062 2.445312 0.0625 2.0625 0.0625 C 1.84375 0.0625 1.660156 0.0117188 1.515625 -0.078125 C 1.378906 -0.179688 1.265625 -0.304688 1.171875 -0.453125 L 1.15625 -0.453125 C 1.164062 -0.335938 1.171875 -0.21875 1.171875 -0.09375 C 1.171875 0.0273438 1.171875 0.128906 1.171875 0.203125 L 1.171875 0.765625 C 1.171875 0.929688 1.21875 1.035156 1.3125 1.078125 C 1.414062 1.128906 1.53125 1.15625 1.65625 1.15625 L 1.671875 1.15625 L 1.671875 1.40625 Z M 1.96875 -0.3125 C 2.226562 -0.3125 2.410156 -0.421875 2.515625 -0.640625 C 2.628906 -0.859375 2.6875 -1.171875 2.6875 -1.578125 C 2.6875 -1.992188 2.628906 -2.300781 2.515625 -2.5 C 2.410156 -2.707031 2.226562 -2.8125 1.96875 -2.8125 C 1.664062 -2.8125 1.457031 -2.707031 1.34375 -2.5 C 1.226562 -2.300781 1.171875 -1.988281 1.171875 -1.5625 C 1.171875 -1.164062 1.226562 -0.859375 1.34375 -0.640625 C 1.457031 -0.421875 1.664062 -0.3125 1.96875 -0.3125 Z "/>
</g>
<g id="glyph-0-16">
<path d="M 1.671875 0.0625 C 1.242188 0.0625 0.910156 -0.078125 0.671875 -0.359375 C 0.441406 -0.640625 0.328125 -1.03125 0.328125 -1.53125 C 0.328125 -2.082031 0.4375 -2.492188 0.65625 -2.765625 C 0.882812 -3.046875 1.203125 -3.1875 1.609375 -3.1875 C 1.992188 -3.1875 2.289062 -3.066406 2.5 -2.828125 C 2.71875 -2.597656 2.828125 -2.253906 2.828125 -1.796875 L 2.828125 -1.515625 L 0.890625 -1.515625 C 0.890625 -1.097656 0.960938 -0.789062 1.109375 -0.59375 C 1.253906 -0.40625 1.46875 -0.3125 1.75 -0.3125 C 1.957031 -0.3125 2.128906 -0.351562 2.265625 -0.4375 C 2.410156 -0.519531 2.519531 -0.613281 2.59375 -0.71875 C 2.613281 -0.707031 2.632812 -0.679688 2.65625 -0.640625 C 2.6875 -0.609375 2.703125 -0.566406 2.703125 -0.515625 C 2.703125 -0.441406 2.664062 -0.359375 2.59375 -0.265625 C 2.519531 -0.179688 2.40625 -0.101562 2.25 -0.03125 C 2.09375 0.0273438 1.898438 0.0625 1.671875 0.0625 Z M 2.234375 -1.828125 C 2.234375 -2.140625 2.1875 -2.390625 2.09375 -2.578125 C 2 -2.773438 1.835938 -2.875 1.609375 -2.875 C 1.390625 -2.875 1.21875 -2.785156 1.09375 -2.609375 C 0.976562 -2.429688 0.910156 -2.171875 0.890625 -1.828125 Z "/>
</g>
<g id="glyph-0-17">
<path d="M 1.21875 0.0625 C 0.925781 0.0625 0.691406 0.0078125 0.515625 -0.09375 C 0.347656 -0.195312 0.265625 -0.351562 0.265625 -0.5625 C 0.265625 -0.664062 0.285156 -0.742188 0.328125 -0.796875 C 0.367188 -0.859375 0.414062 -0.898438 0.46875 -0.921875 C 0.53125 -0.953125 0.582031 -0.96875 0.625 -0.96875 C 0.625 -0.757812 0.671875 -0.582031 0.765625 -0.4375 C 0.859375 -0.289062 1.023438 -0.21875 1.265625 -0.21875 C 1.460938 -0.21875 1.617188 -0.265625 1.734375 -0.359375 C 1.847656 -0.460938 1.90625 -0.59375 1.90625 -0.75 C 1.90625 -0.84375 1.882812 -0.921875 1.84375 -0.984375 C 1.800781 -1.046875 1.726562 -1.109375 1.625 -1.171875 C 1.519531 -1.234375 1.375 -1.304688 1.1875 -1.390625 C 0.988281 -1.472656 0.820312 -1.554688 0.6875 -1.640625 C 0.5625 -1.722656 0.460938 -1.820312 0.390625 -1.9375 C 0.328125 -2.050781 0.296875 -2.191406 0.296875 -2.359375 C 0.296875 -2.617188 0.394531 -2.816406 0.59375 -2.953125 C 0.800781 -3.097656 1.070312 -3.171875 1.40625 -3.171875 C 1.675781 -3.171875 1.882812 -3.117188 2.03125 -3.015625 C 2.175781 -2.910156 2.25 -2.785156 2.25 -2.640625 C 2.25 -2.535156 2.210938 -2.453125 2.140625 -2.390625 C 2.066406 -2.328125 1.960938 -2.296875 1.828125 -2.296875 C 1.828125 -2.484375 1.785156 -2.628906 1.703125 -2.734375 C 1.617188 -2.847656 1.492188 -2.90625 1.328125 -2.90625 C 1.128906 -2.90625 0.988281 -2.859375 0.90625 -2.765625 C 0.820312 -2.679688 0.78125 -2.570312 0.78125 -2.4375 C 0.78125 -2.289062 0.832031 -2.175781 0.9375 -2.09375 C 1.050781 -2.019531 1.238281 -1.929688 1.5 -1.828125 C 1.707031 -1.742188 1.875 -1.65625 2 -1.5625 C 2.125 -1.476562 2.21875 -1.378906 2.28125 -1.265625 C 2.34375 -1.148438 2.375 -1.015625 2.375 -0.859375 C 2.375 -0.554688 2.269531 -0.328125 2.0625 -0.171875 C 1.851562 -0.015625 1.570312 0.0625 1.21875 0.0625 Z "/>
</g>
<g id="glyph-0-18">
<path d="M 0.15625 0 L 0.15625 -0.25 L 0.234375 -0.25 C 0.367188 -0.25 0.484375 -0.269531 0.578125 -0.3125 C 0.671875 -0.363281 0.71875 -0.484375 0.71875 -0.671875 L 0.71875 -2.84375 L 0.1875 -2.84375 L 0.1875 -3.125 L 0.71875 -3.125 L 0.71875 -3.296875 C 0.71875 -3.648438 0.828125 -3.941406 1.046875 -4.171875 C 1.273438 -4.398438 1.628906 -4.515625 2.109375 -4.515625 C 2.460938 -4.515625 2.726562 -4.46875 2.90625 -4.375 C 3.09375 -4.289062 3.1875 -4.175781 3.1875 -4.03125 C 3.1875 -3.914062 3.140625 -3.820312 3.046875 -3.75 C 2.953125 -3.675781 2.820312 -3.640625 2.65625 -3.640625 C 2.65625 -3.722656 2.632812 -3.8125 2.59375 -3.90625 C 2.5625 -4 2.5 -4.078125 2.40625 -4.140625 C 2.3125 -4.210938 2.175781 -4.25 2 -4.25 C 1.800781 -4.25 1.644531 -4.203125 1.53125 -4.109375 C 1.425781 -4.015625 1.351562 -3.894531 1.3125 -3.75 C 1.28125 -3.601562 1.265625 -3.453125 1.265625 -3.296875 L 1.265625 -3.125 L 3.234375 -3.125 L 3.234375 -0.671875 C 3.234375 -0.484375 3.28125 -0.363281 3.375 -0.3125 C 3.46875 -0.269531 3.582031 -0.25 3.71875 -0.25 L 3.78125 -0.25 L 3.78125 0 L 2.1875 0 L 2.1875 -0.25 L 2.203125 -0.25 C 2.335938 -0.25 2.453125 -0.269531 2.546875 -0.3125 C 2.640625 -0.351562 2.6875 -0.460938 2.6875 -0.640625 L 2.6875 -2.84375 L 1.265625 -2.84375 L 1.265625 -0.671875 C 1.265625 -0.484375 1.304688 -0.363281 1.390625 -0.3125 C 1.484375 -0.269531 1.597656 -0.25 1.734375 -0.25 L 1.84375 -0.25 L 1.84375 0 Z "/>
</g>
<g id="glyph-0-19">
<path d="M 1.65625 0.0625 C 1.394531 0.0625 1.164062 0.0078125 0.96875 -0.09375 C 0.769531 -0.207031 0.613281 -0.378906 0.5 -0.609375 C 0.382812 -0.847656 0.328125 -1.160156 0.328125 -1.546875 C 0.328125 -1.960938 0.382812 -2.289062 0.5 -2.53125 C 0.613281 -2.769531 0.765625 -2.9375 0.953125 -3.03125 C 1.148438 -3.132812 1.375 -3.1875 1.625 -3.1875 C 1.78125 -3.1875 1.9375 -3.160156 2.09375 -3.109375 C 2.25 -3.066406 2.378906 -3.003906 2.484375 -2.921875 C 2.585938 -2.835938 2.640625 -2.726562 2.640625 -2.59375 C 2.640625 -2.457031 2.59375 -2.359375 2.5 -2.296875 C 2.414062 -2.242188 2.285156 -2.21875 2.109375 -2.21875 C 2.109375 -2.40625 2.070312 -2.5625 2 -2.6875 C 1.9375 -2.820312 1.8125 -2.890625 1.625 -2.890625 C 1.476562 -2.890625 1.347656 -2.847656 1.234375 -2.765625 C 1.117188 -2.691406 1.03125 -2.554688 0.96875 -2.359375 C 0.914062 -2.171875 0.890625 -1.898438 0.890625 -1.546875 C 0.890625 -1.140625 0.957031 -0.832031 1.09375 -0.625 C 1.226562 -0.425781 1.453125 -0.328125 1.765625 -0.328125 C 1.953125 -0.328125 2.109375 -0.363281 2.234375 -0.4375 C 2.367188 -0.507812 2.472656 -0.609375 2.546875 -0.734375 C 2.609375 -0.671875 2.640625 -0.59375 2.640625 -0.5 C 2.640625 -0.40625 2.601562 -0.316406 2.53125 -0.234375 C 2.457031 -0.148438 2.347656 -0.078125 2.203125 -0.015625 C 2.054688 0.0351562 1.875 0.0625 1.65625 0.0625 Z "/>
</g>
<g id="glyph-0-20">
<path d="M 0.5625 0 L 0.5625 -4.15625 L 2.078125 -4.15625 C 2.578125 -4.15625 2.941406 -4.054688 3.171875 -3.859375 C 3.398438 -3.671875 3.515625 -3.398438 3.515625 -3.046875 C 3.515625 -2.796875 3.445312 -2.578125 3.3125 -2.390625 C 3.1875 -2.210938 3.007812 -2.082031 2.78125 -2 L 4.078125 0 L 2.9375 0 L 1.828125 -1.84375 L 1.578125 -1.84375 L 1.578125 0 Z M 0.875 -0.3125 L 1.265625 -0.3125 L 1.265625 -3.859375 L 0.875 -3.859375 Z M 1.578125 -2.15625 L 2.390625 -2.15625 L 2.390625 -3.859375 L 1.578125 -3.859375 Z M 2.703125 -2.25 C 2.835938 -2.320312 2.953125 -2.414062 3.046875 -2.53125 C 3.140625 -2.644531 3.1875 -2.816406 3.1875 -3.046875 C 3.1875 -3.265625 3.144531 -3.425781 3.0625 -3.53125 C 2.976562 -3.644531 2.859375 -3.726562 2.703125 -3.78125 Z M 3.09375 -0.296875 L 3.53125 -0.296875 L 2.5 -1.90625 C 2.382812 -1.882812 2.269531 -1.867188 2.15625 -1.859375 Z "/>
</g>
<g id="glyph-0-21">
<path d="M 1.015625 -2.21875 C 0.765625 -2.21875 0.570312 -2.257812 0.4375 -2.34375 C 0.300781 -2.4375 0.234375 -2.550781 0.234375 -2.6875 C 0.234375 -2.78125 0.253906 -2.851562 0.296875 -2.90625 C 0.347656 -2.957031 0.414062 -2.984375 0.5 -2.984375 C 0.5 -2.859375 0.539062 -2.742188 0.625 -2.640625 C 0.707031 -2.535156 0.832031 -2.484375 1 -2.484375 C 1.15625 -2.484375 1.28125 -2.519531 1.375 -2.59375 C 1.46875 -2.675781 1.515625 -2.804688 1.515625 -2.984375 C 1.515625 -3.117188 1.460938 -3.226562 1.359375 -3.3125 C 1.265625 -3.394531 1.109375 -3.4375 0.890625 -3.4375 L 0.703125 -3.4375 L 0.703125 -3.671875 L 0.890625 -3.671875 C 1.046875 -3.671875 1.171875 -3.710938 1.265625 -3.796875 C 1.367188 -3.890625 1.421875 -4.015625 1.421875 -4.171875 C 1.421875 -4.296875 1.394531 -4.390625 1.34375 -4.453125 C 1.289062 -4.523438 1.203125 -4.5625 1.078125 -4.5625 C 0.929688 -4.5625 0.832031 -4.507812 0.78125 -4.40625 C 0.726562 -4.3125 0.703125 -4.195312 0.703125 -4.0625 C 0.566406 -4.0625 0.457031 -4.078125 0.375 -4.109375 C 0.300781 -4.140625 0.265625 -4.207031 0.265625 -4.3125 C 0.265625 -4.445312 0.332031 -4.5625 0.46875 -4.65625 C 0.613281 -4.75 0.816406 -4.796875 1.078125 -4.796875 C 1.335938 -4.796875 1.546875 -4.742188 1.703125 -4.640625 C 1.867188 -4.546875 1.953125 -4.40625 1.953125 -4.21875 C 1.953125 -4.050781 1.890625 -3.914062 1.765625 -3.8125 C 1.648438 -3.71875 1.515625 -3.644531 1.359375 -3.59375 L 1.359375 -3.5625 C 1.460938 -3.550781 1.566406 -3.523438 1.671875 -3.484375 C 1.773438 -3.441406 1.863281 -3.378906 1.9375 -3.296875 C 2.007812 -3.222656 2.046875 -3.117188 2.046875 -2.984375 C 2.046875 -2.785156 1.988281 -2.628906 1.875 -2.515625 C 1.769531 -2.410156 1.640625 -2.332031 1.484375 -2.28125 C 1.328125 -2.238281 1.171875 -2.21875 1.015625 -2.21875 Z "/>
</g>
<g id="glyph-0-22">
<path d="M -0.03125 -1.390625 L -0.03125 -1.734375 L 5.859375 -1.734375 L 5.859375 -1.390625 Z "/>
</g>
<g id="glyph-0-23">
<path d="M 0.21875 0 L 0.21875 -0.25 L 0.296875 -0.25 C 0.421875 -0.25 0.53125 -0.269531 0.625 -0.3125 C 0.726562 -0.351562 0.78125 -0.460938 0.78125 -0.640625 L 0.78125 -3.515625 C 0.78125 -3.691406 0.726562 -3.800781 0.625 -3.84375 C 0.53125 -3.894531 0.421875 -3.921875 0.296875 -3.921875 L 0.21875 -3.921875 L 0.21875 -4.15625 L 1.796875 -4.15625 C 2.785156 -4.15625 3.28125 -3.78125 3.28125 -3.03125 C 3.28125 -2.832031 3.238281 -2.660156 3.15625 -2.515625 C 3.070312 -2.367188 2.960938 -2.253906 2.828125 -2.171875 C 2.703125 -2.085938 2.570312 -2.019531 2.4375 -1.96875 L 3.234375 -0.71875 C 3.328125 -0.5625 3.421875 -0.441406 3.515625 -0.359375 C 3.609375 -0.285156 3.71875 -0.25 3.84375 -0.25 L 3.859375 -0.25 L 3.859375 0 L 3.78125 0 C 3.539062 0 3.351562 -0.0078125 3.21875 -0.03125 C 3.082031 -0.0625 2.972656 -0.113281 2.890625 -0.1875 C 2.804688 -0.257812 2.722656 -0.375 2.640625 -0.53125 L 1.84375 -1.828125 L 1.359375 -1.828125 L 1.359375 -0.640625 C 1.359375 -0.460938 1.40625 -0.351562 1.5 -0.3125 C 1.601562 -0.269531 1.71875 -0.25 1.84375 -0.25 L 1.921875 -0.25 L 1.921875 0 Z M 1.765625 -2.109375 C 2.109375 -2.109375 2.34375 -2.179688 2.46875 -2.328125 C 2.59375 -2.484375 2.65625 -2.710938 2.65625 -3.015625 C 2.65625 -3.328125 2.585938 -3.546875 2.453125 -3.671875 C 2.316406 -3.804688 2.085938 -3.875 1.765625 -3.875 L 1.359375 -3.875 L 1.359375 -2.109375 Z "/>
</g>
<g id="glyph-0-24">
<path d="M 1.828125 0.75 C 1.472656 0.601562 1.1875 0.414062 0.96875 0.1875 C 0.75 -0.0273438 0.585938 -0.304688 0.484375 -0.640625 C 0.378906 -0.972656 0.328125 -1.375 0.328125 -1.84375 C 0.328125 -2.3125 0.378906 -2.710938 0.484375 -3.046875 C 0.585938 -3.378906 0.75 -3.65625 0.96875 -3.875 C 1.1875 -4.101562 1.472656 -4.285156 1.828125 -4.421875 L 1.828125 -4.171875 C 1.554688 -4.003906 1.359375 -3.796875 1.234375 -3.546875 C 1.109375 -3.304688 1.023438 -3.039062 0.984375 -2.75 C 0.953125 -2.457031 0.9375 -2.15625 0.9375 -1.84375 C 0.9375 -1.539062 0.953125 -1.238281 0.984375 -0.9375 C 1.023438 -0.644531 1.109375 -0.375 1.234375 -0.125 C 1.359375 0.113281 1.554688 0.316406 1.828125 0.484375 Z "/>
</g>
<g id="glyph-0-25">
<path d="M 1.75 0.0625 C 1.425781 0.0625 1.160156 -0.0234375 0.953125 -0.203125 C 0.742188 -0.390625 0.585938 -0.648438 0.484375 -0.984375 C 0.390625 -1.328125 0.34375 -1.734375 0.34375 -2.203125 C 0.34375 -2.679688 0.390625 -3.085938 0.484375 -3.421875 C 0.585938 -3.765625 0.742188 -4.023438 0.953125 -4.203125 C 1.160156 -4.390625 1.425781 -4.484375 1.75 -4.484375 C 2.050781 -4.484375 2.304688 -4.390625 2.515625 -4.203125 C 2.722656 -4.023438 2.878906 -3.765625 2.984375 -3.421875 C 3.085938 -3.078125 3.140625 -2.671875 3.140625 -2.203125 C 3.140625 -1.492188 3.019531 -0.9375 2.78125 -0.53125 C 2.550781 -0.132812 2.207031 0.0625 1.75 0.0625 Z M 2.59375 -2.390625 C 2.570312 -2.941406 2.492188 -3.378906 2.359375 -3.703125 C 2.222656 -4.023438 2.019531 -4.1875 1.75 -4.1875 C 1.570312 -4.1875 1.421875 -4.113281 1.296875 -3.96875 C 1.171875 -3.832031 1.078125 -3.632812 1.015625 -3.375 C 0.953125 -3.113281 0.910156 -2.8125 0.890625 -2.46875 Z M 1.75 -0.234375 C 2.019531 -0.234375 2.222656 -0.398438 2.359375 -0.734375 C 2.503906 -1.066406 2.582031 -1.523438 2.59375 -2.109375 L 0.890625 -2 C 0.898438 -1.644531 0.9375 -1.335938 1 -1.078125 C 1.0625 -0.816406 1.15625 -0.609375 1.28125 -0.453125 C 1.40625 -0.304688 1.5625 -0.234375 1.75 -0.234375 Z "/>
</g>
<g id="glyph-0-26">
<path d="M 0.1875 0.484375 C 0.457031 0.316406 0.65625 0.113281 0.78125 -0.125 C 0.90625 -0.375 0.984375 -0.644531 1.015625 -0.9375 C 1.054688 -1.238281 1.078125 -1.539062 1.078125 -1.84375 C 1.078125 -2.15625 1.054688 -2.457031 1.015625 -2.75 C 0.984375 -3.039062 0.90625 -3.304688 0.78125 -3.546875 C 0.65625 -3.796875 0.457031 -4.003906 0.1875 -4.171875 L 0.1875 -4.421875 C 0.539062 -4.285156 0.828125 -4.101562 1.046875 -3.875 C 1.265625 -3.65625 1.425781 -3.378906 1.53125 -3.046875 C 1.632812 -2.710938 1.6875 -2.3125 1.6875 -1.84375 C 1.6875 -1.375 1.632812 -0.972656 1.53125 -0.640625 C 1.425781 -0.304688 1.265625 -0.0273438 1.046875 0.1875 C 0.828125 0.414062 0.539062 0.601562 0.1875 0.75 Z "/>
</g>
<g id="glyph-0-27">
<path d="M 0.453125 -2.5625 C 0.410156 -2.6875 0.359375 -2.769531 0.296875 -2.8125 C 0.234375 -2.851562 0.140625 -2.875 0.015625 -2.875 L 0.015625 -3.125 L 1.484375 -3.125 L 1.484375 -2.875 L 1.40625 -2.875 C 1.175781 -2.875 1.0625 -2.78125 1.0625 -2.59375 C 1.0625 -2.5625 1.0625 -2.53125 1.0625 -2.5 C 1.070312 -2.46875 1.082031 -2.429688 1.09375 -2.390625 L 1.5 -1.28125 C 1.550781 -1.132812 1.601562 -0.976562 1.65625 -0.8125 C 1.707031 -0.644531 1.742188 -0.507812 1.765625 -0.40625 C 1.785156 -0.488281 1.828125 -0.609375 1.890625 -0.765625 C 1.953125 -0.921875 2.007812 -1.066406 2.0625 -1.203125 L 2.484375 -2.34375 C 2.515625 -2.4375 2.53125 -2.519531 2.53125 -2.59375 C 2.53125 -2.78125 2.40625 -2.875 2.15625 -2.875 L 2.109375 -2.875 L 2.109375 -3.125 L 3.359375 -3.125 L 3.359375 -2.875 L 3.28125 -2.875 C 3.175781 -2.875 3.09375 -2.84375 3.03125 -2.78125 C 2.976562 -2.726562 2.914062 -2.609375 2.84375 -2.421875 L 1.921875 0 L 1.390625 0 Z "/>
</g>
<g id="glyph-0-28">
<path d="M 0.140625 0 L 0.140625 -0.25 L 0.203125 -0.25 C 0.335938 -0.25 0.453125 -0.269531 0.546875 -0.3125 C 0.640625 -0.351562 0.6875 -0.460938 0.6875 -0.640625 L 0.6875 -2.484375 C 0.6875 -2.648438 0.640625 -2.753906 0.546875 -2.796875 C 0.453125 -2.847656 0.335938 -2.875 0.203125 -2.875 L 0.1875 -2.875 L 0.1875 -3.125 L 1.234375 -3.125 L 1.234375 -0.671875 C 1.234375 -0.484375 1.28125 -0.363281 1.375 -0.3125 C 1.46875 -0.269531 1.582031 -0.25 1.71875 -0.25 L 1.796875 -0.25 L 1.796875 0 Z M 0.6875 -3.609375 C 0.769531 -3.722656 0.859375 -3.859375 0.953125 -4.015625 C 1.046875 -4.179688 1.125 -4.332031 1.1875 -4.46875 L 1.8125 -4.46875 L 1.8125 -4.40625 C 1.769531 -4.34375 1.695312 -4.253906 1.59375 -4.140625 C 1.488281 -4.023438 1.375 -3.910156 1.25 -3.796875 C 1.125 -3.691406 1.007812 -3.601562 0.90625 -3.53125 L 0.6875 -3.53125 Z "/>
</g>
<g id="glyph-0-29">
<path d="M 2.109375 0.0625 C 1.722656 0.0625 1.394531 -0.0234375 1.125 -0.203125 C 0.863281 -0.390625 0.664062 -0.640625 0.53125 -0.953125 C 0.394531 -1.273438 0.328125 -1.65625 0.328125 -2.09375 C 0.328125 -2.507812 0.394531 -2.875 0.53125 -3.1875 C 0.675781 -3.507812 0.890625 -3.757812 1.171875 -3.9375 C 1.453125 -4.125 1.796875 -4.21875 2.203125 -4.21875 C 2.597656 -4.21875 2.890625 -4.15625 3.078125 -4.03125 C 3.273438 -3.90625 3.375 -3.75 3.375 -3.5625 C 3.375 -3.4375 3.328125 -3.335938 3.234375 -3.265625 C 3.140625 -3.191406 3.019531 -3.15625 2.875 -3.15625 C 2.875 -3.28125 2.851562 -3.398438 2.8125 -3.515625 C 2.769531 -3.628906 2.695312 -3.722656 2.59375 -3.796875 C 2.5 -3.867188 2.363281 -3.90625 2.1875 -3.90625 C 1.75 -3.90625 1.4375 -3.742188 1.25 -3.421875 C 1.070312 -3.109375 0.984375 -2.664062 0.984375 -2.09375 C 0.984375 -1.738281 1.023438 -1.425781 1.109375 -1.15625 C 1.191406 -0.894531 1.320312 -0.691406 1.5 -0.546875 C 1.675781 -0.398438 1.90625 -0.328125 2.1875 -0.328125 C 2.46875 -0.328125 2.6875 -0.375 2.84375 -0.46875 C 3.007812 -0.570312 3.144531 -0.691406 3.25 -0.828125 C 3.28125 -0.804688 3.304688 -0.773438 3.328125 -0.734375 C 3.347656 -0.703125 3.359375 -0.65625 3.359375 -0.59375 C 3.359375 -0.5 3.3125 -0.398438 3.21875 -0.296875 C 3.132812 -0.191406 3 -0.101562 2.8125 -0.03125 C 2.625 0.0273438 2.390625 0.0625 2.109375 0.0625 Z "/>
</g>
<g id="glyph-0-30">
<path d="M 2.0625 0.0625 C 1.84375 0.0625 1.660156 0.0117188 1.515625 -0.078125 C 1.378906 -0.179688 1.265625 -0.304688 1.171875 -0.453125 L 1.140625 -0.453125 L 1.03125 0 L 0.109375 0 L 0.109375 -0.25 L 0.15625 -0.25 C 0.28125 -0.25 0.390625 -0.269531 0.484375 -0.3125 C 0.578125 -0.363281 0.625 -0.484375 0.625 -0.671875 L 0.625 -3.78125 C 0.625 -3.957031 0.578125 -4.066406 0.484375 -4.109375 C 0.390625 -4.160156 0.28125 -4.1875 0.15625 -4.1875 L 0.109375 -4.1875 L 0.109375 -4.421875 L 1.171875 -4.421875 L 1.171875 -3.359375 C 1.171875 -3.296875 1.171875 -3.210938 1.171875 -3.109375 C 1.171875 -3.003906 1.164062 -2.898438 1.15625 -2.796875 C 1.15625 -2.703125 1.15625 -2.632812 1.15625 -2.59375 L 1.171875 -2.59375 C 1.265625 -2.78125 1.378906 -2.925781 1.515625 -3.03125 C 1.660156 -3.132812 1.84375 -3.1875 2.0625 -3.1875 C 2.445312 -3.1875 2.742188 -3.054688 2.953125 -2.796875 C 3.160156 -2.535156 3.265625 -2.125 3.265625 -1.5625 C 3.265625 -1 3.160156 -0.585938 2.953125 -0.328125 C 2.742188 -0.0664062 2.445312 0.0625 2.0625 0.0625 Z M 1.96875 -0.3125 C 2.226562 -0.3125 2.410156 -0.421875 2.515625 -0.640625 C 2.628906 -0.859375 2.6875 -1.171875 2.6875 -1.578125 C 2.6875 -1.992188 2.628906 -2.300781 2.515625 -2.5 C 2.410156 -2.707031 2.226562 -2.8125 1.96875 -2.8125 C 1.664062 -2.8125 1.457031 -2.707031 1.34375 -2.5 C 1.226562 -2.300781 1.171875 -1.988281 1.171875 -1.5625 C 1.171875 -1.164062 1.226562 -0.859375 1.34375 -0.640625 C 1.457031 -0.421875 1.664062 -0.3125 1.96875 -0.3125 Z "/>
</g>
<g id="glyph-0-31">
<path d="M 0.21875 1.125 C 0.488281 1.125 0.707031 1.070312 0.875 0.96875 C 1.039062 0.875 1.175781 0.738281 1.28125 0.5625 C 1.382812 0.382812 1.46875 0.191406 1.53125 -0.015625 L 0.453125 -2.5625 C 0.398438 -2.6875 0.34375 -2.769531 0.28125 -2.8125 C 0.226562 -2.851562 0.148438 -2.875 0.046875 -2.875 L 0.015625 -2.875 L 0.015625 -3.125 L 1.421875 -3.125 L 1.421875 -2.875 L 1.40625 -2.875 C 1.175781 -2.875 1.0625 -2.78125 1.0625 -2.59375 C 1.0625 -2.53125 1.070312 -2.460938 1.09375 -2.390625 L 1.53125 -1.34375 C 1.5625 -1.257812 1.597656 -1.160156 1.640625 -1.046875 C 1.679688 -0.941406 1.71875 -0.835938 1.75 -0.734375 C 1.78125 -0.640625 1.800781 -0.5625 1.8125 -0.5 C 1.832031 -0.613281 1.863281 -0.726562 1.90625 -0.84375 C 1.957031 -0.96875 2.003906 -1.085938 2.046875 -1.203125 L 2.4375 -2.34375 C 2.46875 -2.4375 2.484375 -2.519531 2.484375 -2.59375 C 2.484375 -2.78125 2.351562 -2.875 2.09375 -2.875 L 2.078125 -2.875 L 2.078125 -3.125 L 3.296875 -3.125 L 3.296875 -2.875 L 3.28125 -2.875 C 3.164062 -2.875 3.078125 -2.84375 3.015625 -2.78125 C 2.960938 -2.726562 2.898438 -2.609375 2.828125 -2.421875 L 1.953125 0.015625 C 1.847656 0.304688 1.75 0.539062 1.65625 0.71875 C 1.5625 0.894531 1.457031 1.03125 1.34375 1.125 C 1.226562 1.226562 1.082031 1.300781 0.90625 1.34375 C 0.738281 1.382812 0.53125 1.40625 0.28125 1.40625 L 0.21875 1.40625 Z "/>
</g>
</g>
</defs>
<g fill="rgb(90.980392%, 90.980392%, 90.980392%)" fill-opacity="1">
<use xlink:href="#glyph-0-0" x="30" y="26.235352"/>
<use xlink:href="#glyph-0-1" x="34" y="26.235352"/>
<use xlink:href="#glyph-0-2" x="38" y="26.235352"/>
<use xlink:href="#glyph-0-3" x="41" y="26.235352"/>
<use xlink:href="#glyph-0-4" x="45" y="26.235352"/>
<use xlink:href="#glyph-0-5" x="47" y="26.235352"/>
<use xlink:href="#glyph-0-6" x="50" y="26.235352"/>
<use xlink:href="#glyph-0-7" x="53" y="26.235352"/>
<use xlink:href="#glyph-0-5" x="58" y="26.235352"/>
<use xlink:href="#glyph-0-1" x="61" y="26.235352"/>
<use xlink:href="#glyph-0-8" x="65" y="26.235352"/>
<use xlink:href="#glyph-0-9" x="67" y="26.235352"/>
<use xlink:href="#glyph-0-10" x="69" y="26.235352"/>
<use xlink:href="#glyph-0-4" x="72" y="26.235352"/>
<use xlink:href="#glyph-0-11" x="74" y="26.235352"/>
<use xlink:href="#glyph-0-12" x="78" y="26.235352"/>
<use xlink:href="#glyph-0-13" x="80" y="26.235352"/>
<use xlink:href="#glyph-0-14" x="82" y="26.235352"/>
<use xlink:href="#glyph-0-8" x="86" y="26.235352"/>
<use xlink:href="#glyph-0-15" x="88" y="26.235352"/>
<use xlink:href="#glyph-0-16" x="92" y="26.235352"/>
<use xlink:href="#glyph-0-6" x="95" y="26.235352"/>
<use xlink:href="#glyph-0-17" x="98" y="26.235352"/>
<use xlink:href="#glyph-0-3" x="101" y="26.235352"/>
<use xlink:href="#glyph-0-15" x="105" y="26.235352"/>
<use xlink:href="#glyph-0-16" x="109" y="26.235352"/>
<use xlink:href="#glyph-0-6" x="112" y="26.235352"/>
<use xlink:href="#glyph-0-18" x="115" y="26.235352"/>
<use xlink:href="#glyph-0-19" x="119" y="26.235352"/>
<use xlink:href="#glyph-0-8" x="122" y="26.235352"/>
<use xlink:href="#glyph-0-16" x="124" y="26.235352"/>
<use xlink:href="#glyph-0-13" x="127" y="26.235352"/>
<use xlink:href="#glyph-0-6" x="129" y="26.235352"/>
<use xlink:href="#glyph-0-5" x="132" y="26.235352"/>
<use xlink:href="#glyph-0-11" x="135" y="26.235352"/>
<use xlink:href="#glyph-0-8" x="139" y="26.235352"/>
<use xlink:href="#glyph-0-5" x="141" y="26.235352"/>
<use xlink:href="#glyph-0-4" x="144" y="26.235352"/>
<use xlink:href="#glyph-0-13" x="146" y="26.235352"/>
<use xlink:href="#glyph-0-16" x="148" y="26.235352"/>
<use xlink:href="#glyph-0-1" x="151" y="26.235352"/>
<use xlink:href="#glyph-0-13" x="155" y="26.235352"/>
<use xlink:href="#glyph-0-20" x="157" y="26.235352"/>
<use xlink:href="#glyph-0-21" x="161" y="26.235352"/>
<use xlink:href="#glyph-0-13" x="163" y="26.235352"/>
<use xlink:href="#glyph-0-22" x="165" y="26.235352"/>
<use xlink:href="#glyph-0-13" x="171" y="26.235352"/>
<use xlink:href="#glyph-0-23" x="173" y="26.235352"/>
<use xlink:href="#glyph-0-24" x="177" y="26.235352"/>
</g>
<g fill="rgb(90.980392%, 90.980392%, 90.980392%)" fill-opacity="1">
<use xlink:href="#glyph-0-25" x="179" y="26.235352"/>
</g>
<g fill="rgb(90.980392%, 90.980392%, 90.980392%)" fill-opacity="1">
<use xlink:href="#glyph-0-26" x="182" y="26.235352"/>
<use xlink:href="#glyph-0-13" x="184" y="26.235352"/>
<use xlink:href="#glyph-0-27" x="186" y="26.235352"/>
<use xlink:href="#glyph-0-5" x="189" y="26.235352"/>
<use xlink:href="#glyph-0-6" x="192" y="26.235352"/>
<use xlink:href="#glyph-0-28" x="195" y="26.235352"/>
<use xlink:href="#glyph-0-5" x="197" y="26.235352"/>
<use xlink:href="#glyph-0-13" x="200" y="26.235352"/>
<use xlink:href="#glyph-0-19" x="202" y="26.235352"/>
<use xlink:href="#glyph-0-10" x="205" y="26.235352"/>
<use xlink:href="#glyph-0-1" x="208" y="26.235352"/>
<use xlink:href="#glyph-0-13" x="212" y="26.235352"/>
<use xlink:href="#glyph-0-29" x="214" y="26.235352"/>
<use xlink:href="#glyph-0-14" x="218" y="26.235352"/>
<use xlink:href="#glyph-0-16" x="222" y="26.235352"/>
<use xlink:href="#glyph-0-30" x="225" y="26.235352"/>
<use xlink:href="#glyph-0-31" x="228" y="26.235352"/>
<use xlink:href="#glyph-0-17" x="231" y="26.235352"/>
<use xlink:href="#glyph-0-14" x="234" y="26.235352"/>
<use xlink:href="#glyph-0-16" x="238" y="26.235352"/>
<use xlink:href="#glyph-0-27" x="241" y="26.235352"/>
</g>
</svg>
