<?xml version="1.0" encoding="UTF-8"?>
<svg xmlns="http://www.w3.org/2000/svg" xmlns:xlink="http://www.w3.org/1999/xlink" width="1920" height="1080" viewBox="0 0 1920 1080">
<defs>
<g>
<g id="glyph-0-0">
<path d="M 0.296875 -2.109375 C 0.6875 -1.421875 1.046875 -0.703125 1.3125 0.015625 L 1.5 0 C 2.0625 -1.734375 2.671875 -3.25 3.453125 -4.78125 L 3.28125 -4.875 C 2.53125 -3.40625 1.90625 -1.96875 1.421875 -0.515625 C 1.203125 -1.140625 0.921875 -1.71875 0.578125 -2.296875 Z "/>
</g>
<g id="glyph-1-0">
</g>
<g id="glyph-1-1">
<path d="M 0.515625 -3.4375 C 0.484375 -3.5625 0.4375 -3.640625 0.375 -3.671875 C 0.3125 -3.710938 0.226562 -3.734375 0.125 -3.734375 L 0.046875 -3.734375 L 0.046875 -3.96875 L 1.578125 -3.96875 L 1.578125 -3.734375 L 1.453125 -3.734375 C 1.234375 -3.734375 1.125 -3.644531 1.125 -3.46875 C 1.125 -3.4375 1.125 -3.40625 1.125 -3.375 C 1.132812 -3.34375 1.144531 -3.304688 1.15625 -3.265625 L 1.671875 -1.484375 C 1.722656 -1.316406 1.769531 -1.148438 1.8125 -0.984375 C 1.851562 -0.828125 1.882812 -0.679688 1.90625 -0.546875 C 1.9375 -0.691406 1.96875 -0.847656 2 -1.015625 C 2.039062 -1.191406 2.085938 -1.367188 2.140625 -1.546875 L 2.796875 -3.9375 L 3.203125 -3.9375 L 3.90625 -1.53125 C 3.957031 -1.34375 4 -1.160156 4.03125 -0.984375 C 4.070312 -0.816406 4.109375 -0.671875 4.140625 -0.546875 C 4.171875 -0.679688 4.203125 -0.820312 4.234375 -0.96875 C 4.265625 -1.113281 4.304688 -1.273438 4.359375 -1.453125 L 4.84375 -3.171875 C 4.863281 -3.222656 4.878906 -3.273438 4.890625 -3.328125 C 4.898438 -3.390625 4.90625 -3.4375 4.90625 -3.46875 C 4.90625 -3.644531 4.785156 -3.734375 4.546875 -3.734375 L 4.421875 -3.734375 L 4.421875 -3.96875 L 5.78125 -3.96875 L 5.78125 -3.734375 L 5.671875 -3.734375 C 5.554688 -3.734375 5.46875 -3.707031 5.40625 -3.65625 C 5.351562 -3.601562 5.300781 -3.484375 5.25 -3.296875 L 4.3125 0 L 3.8125 0 L 2.890625 -3.109375 L 2.046875 0 L 1.53125 0 Z "/>
</g>
<g id="glyph-1-2">
<path d="M 0.09375 0 L 0.09375 -0.234375 L 0.140625 -0.234375 C 0.265625 -0.234375 0.367188 -0.253906 0.453125 -0.296875 C 0.546875 -0.347656 0.59375 -0.460938 0.59375 -0.640625 L 0.59375 -3.609375 C 0.59375 -3.773438 0.546875 -3.878906 0.453125 -3.921875 C 0.367188 -3.972656 0.265625 -4 0.140625 -4 L 0.09375 -4 L 0.09375 -4.234375 L 1.125 -4.234375 L 1.125 -3 C 1.125 -2.9375 1.117188 -2.867188 1.109375 -2.796875 C 1.109375 -2.722656 1.101562 -2.660156 1.09375 -2.609375 C 1.09375 -2.554688 1.09375 -2.53125 1.09375 -2.53125 L 1.125 -2.53125 C 1.300781 -2.863281 1.578125 -3.03125 1.953125 -3.03125 C 2.265625 -3.03125 2.503906 -2.941406 2.671875 -2.765625 C 2.847656 -2.597656 2.9375 -2.328125 2.9375 -1.953125 L 2.9375 -0.640625 C 2.9375 -0.460938 2.972656 -0.347656 3.046875 -0.296875 C 3.128906 -0.253906 3.234375 -0.234375 3.359375 -0.234375 L 3.375 -0.234375 L 3.375 0 L 2.40625 0 L 2.40625 -1.921875 C 2.40625 -2.160156 2.359375 -2.347656 2.265625 -2.484375 C 2.179688 -2.617188 2.023438 -2.6875 1.796875 -2.6875 C 1.566406 -2.6875 1.394531 -2.601562 1.28125 -2.4375 C 1.175781 -2.269531 1.125 -2.050781 1.125 -1.78125 L 1.125 -0.609375 C 1.125 -0.441406 1.164062 -0.335938 1.25 -0.296875 C 1.34375 -0.253906 1.453125 -0.234375 1.578125 -0.234375 L 1.59375 -0.234375 L 1.59375 0 Z "/>
</g>
<g id="glyph-1-3">
<path d="M 0.890625 -3.53125 C 0.804688 -3.53125 0.734375 -3.554688 0.671875 -3.609375 C 0.609375 -3.660156 0.578125 -3.75 0.578125 -3.875 C 0.578125 -4.007812 0.609375 -4.101562 0.671875 -4.15625 C 0.734375 -4.207031 0.804688 -4.234375 0.890625 -4.234375 C 0.984375 -4.234375 1.0625 -4.207031 1.125 -4.15625 C 1.1875 -4.101562 1.21875 -4.007812 1.21875 -3.875 C 1.21875 -3.75 1.1875 -3.660156 1.125 -3.609375 C 1.0625 -3.554688 0.984375 -3.53125 0.890625 -3.53125 Z M 0.125 0 L 0.125 -0.234375 L 0.203125 -0.234375 C 0.328125 -0.234375 0.429688 -0.253906 0.515625 -0.296875 C 0.609375 -0.335938 0.65625 -0.441406 0.65625 -0.609375 L 0.65625 -2.375 C 0.65625 -2.53125 0.609375 -2.628906 0.515625 -2.671875 C 0.429688 -2.722656 0.328125 -2.75 0.203125 -2.75 L 0.1875 -2.75 L 0.1875 -2.984375 L 1.171875 -2.984375 L 1.171875 -0.640625 C 1.171875 -0.460938 1.21875 -0.347656 1.3125 -0.296875 C 1.40625 -0.253906 1.515625 -0.234375 1.640625 -0.234375 L 1.703125 -0.234375 L 1.703125 0 Z "/>
</g>
<g id="glyph-1-4">
<path d="M 1.328125 0.0625 C 1.046875 0.0625 0.84375 0 0.71875 -0.125 C 0.59375 -0.257812 0.53125 -0.488281 0.53125 -0.8125 L 0.53125 -2.671875 L 0.109375 -2.671875 L 0.109375 -2.890625 C 0.171875 -2.890625 0.242188 -2.898438 0.328125 -2.921875 C 0.410156 -2.953125 0.484375 -3 0.546875 -3.0625 C 0.609375 -3.132812 0.65625 -3.21875 0.6875 -3.3125 C 0.726562 -3.40625 0.765625 -3.523438 0.796875 -3.671875 L 1.046875 -3.671875 L 1.046875 -2.984375 L 1.78125 -2.984375 L 1.78125 -2.671875 L 1.046875 -2.671875 L 1.046875 -0.796875 C 1.046875 -0.597656 1.082031 -0.453125 1.15625 -0.359375 C 1.238281 -0.273438 1.34375 -0.234375 1.46875 -0.234375 C 1.539062 -0.234375 1.601562 -0.238281 1.65625 -0.25 C 1.707031 -0.257812 1.765625 -0.269531 1.828125 -0.28125 L 1.828125 -0.03125 C 1.773438 -0.0078125 1.703125 0.0078125 1.609375 0.03125 C 1.515625 0.0507812 1.421875 0.0625 1.328125 0.0625 Z "/>
</g>
<g id="glyph-1-5">
<path d="M 1.59375 0.0625 C 1.1875 0.0625 0.867188 -0.0703125 0.640625 -0.34375 C 0.421875 -0.613281 0.3125 -0.988281 0.3125 -1.46875 C 0.3125 -1.988281 0.414062 -2.378906 0.625 -2.640625 C 0.84375 -2.898438 1.148438 -3.03125 1.546875 -3.03125 C 1.898438 -3.03125 2.179688 -2.921875 2.390625 -2.703125 C 2.597656 -2.484375 2.703125 -2.148438 2.703125 -1.703125 L 2.703125 -1.453125 L 0.84375 -1.453125 C 0.851562 -1.046875 0.925781 -0.75 1.0625 -0.5625 C 1.207031 -0.382812 1.410156 -0.296875 1.671875 -0.296875 C 1.867188 -0.296875 2.035156 -0.332031 2.171875 -0.40625 C 2.304688 -0.488281 2.40625 -0.582031 2.46875 -0.6875 C 2.5 -0.675781 2.523438 -0.648438 2.546875 -0.609375 C 2.566406 -0.578125 2.578125 -0.539062 2.578125 -0.5 C 2.578125 -0.425781 2.539062 -0.34375 2.46875 -0.25 C 2.394531 -0.164062 2.285156 -0.09375 2.140625 -0.03125 C 2.003906 0.0273438 1.820312 0.0625 1.59375 0.0625 Z M 2.140625 -1.75 C 2.140625 -2.050781 2.09375 -2.289062 2 -2.46875 C 1.90625 -2.644531 1.75 -2.734375 1.53125 -2.734375 C 1.320312 -2.734375 1.160156 -2.648438 1.046875 -2.484375 C 0.941406 -2.316406 0.878906 -2.070312 0.859375 -1.75 Z "/>
</g>
<g id="glyph-1-6">
<path d="M 0.140625 -1.3125 L 0.140625 -1.71875 L 1.578125 -1.71875 L 1.578125 -1.3125 Z "/>
</g>
<g id="glyph-1-7">
<path d="M 0.21875 0 L 0.21875 -0.234375 L 0.28125 -0.234375 C 0.40625 -0.234375 0.507812 -0.253906 0.59375 -0.296875 C 0.6875 -0.347656 0.734375 -0.460938 0.734375 -0.640625 L 0.734375 -3.359375 C 0.734375 -3.523438 0.6875 -3.628906 0.59375 -3.671875 C 0.507812 -3.710938 0.40625 -3.734375 0.28125 -3.734375 L 0.21875 -3.734375 L 0.21875 -3.96875 L 1.703125 -3.96875 C 2.179688 -3.96875 2.535156 -3.882812 2.765625 -3.71875 C 3.003906 -3.5625 3.125 -3.3125 3.125 -2.96875 C 3.125 -2.726562 3.054688 -2.539062 2.921875 -2.40625 C 2.796875 -2.269531 2.632812 -2.171875 2.4375 -2.109375 L 2.4375 -2.078125 C 2.6875 -2.035156 2.890625 -1.929688 3.046875 -1.765625 C 3.210938 -1.597656 3.296875 -1.367188 3.296875 -1.078125 C 3.296875 -0.359375 2.820312 0 1.875 0 Z M 1.6875 -2.21875 C 2.007812 -2.21875 2.226562 -2.273438 2.34375 -2.390625 C 2.46875 -2.515625 2.53125 -2.707031 2.53125 -2.96875 C 2.53125 -3.25 2.460938 -3.4375 2.328125 -3.53125 C 2.203125 -3.632812 1.984375 -3.6875 1.671875 -3.6875 L 1.296875 -3.6875 L 1.296875 -2.21875 Z M 1.84375 -0.28125 C 2.15625 -0.28125 2.375 -0.335938 2.5 -0.453125 C 2.632812 -0.578125 2.703125 -0.789062 2.703125 -1.09375 C 2.703125 -1.382812 2.640625 -1.597656 2.515625 -1.734375 C 2.398438 -1.867188 2.179688 -1.9375 1.859375 -1.9375 L 1.296875 -1.9375 L 1.296875 -0.28125 Z "/>
</g>
<g id="glyph-1-8">
<path d="M 1.59375 0.0625 C 1.195312 0.0625 0.882812 -0.0664062 0.65625 -0.328125 C 0.425781 -0.585938 0.3125 -0.976562 0.3125 -1.5 C 0.3125 -2.019531 0.421875 -2.40625 0.640625 -2.65625 C 0.859375 -2.90625 1.179688 -3.03125 1.609375 -3.03125 C 2.015625 -3.03125 2.332031 -2.90625 2.5625 -2.65625 C 2.789062 -2.40625 2.90625 -2.019531 2.90625 -1.5 C 2.90625 -0.976562 2.789062 -0.585938 2.5625 -0.328125 C 2.34375 -0.0664062 2.019531 0.0625 1.59375 0.0625 Z M 1.609375 -0.234375 C 1.890625 -0.234375 2.082031 -0.335938 2.1875 -0.546875 C 2.300781 -0.765625 2.359375 -1.082031 2.359375 -1.5 C 2.359375 -1.914062 2.300781 -2.226562 2.1875 -2.4375 C 2.070312 -2.644531 1.878906 -2.75 1.609375 -2.75 C 1.328125 -2.75 1.128906 -2.644531 1.015625 -2.4375 C 0.898438 -2.226562 0.84375 -1.914062 0.84375 -1.5 C 0.84375 -1.082031 0.898438 -0.765625 1.015625 -0.546875 C 1.128906 -0.335938 1.328125 -0.234375 1.609375 -0.234375 Z "/>
</g>
<g id="glyph-1-9">
<path d="M 0.03125 0 L 0.03125 -0.234375 L 0.078125 -0.234375 C 0.210938 -0.234375 0.316406 -0.257812 0.390625 -0.3125 C 0.472656 -0.363281 0.570312 -0.457031 0.6875 -0.59375 L 1.390625 -1.5 L 0.6875 -2.453125 C 0.601562 -2.546875 0.519531 -2.617188 0.4375 -2.671875 C 0.363281 -2.722656 0.285156 -2.75 0.203125 -2.75 L 0.140625 -2.75 L 0.140625 -2.984375 L 1.546875 -2.984375 L 1.546875 -2.75 L 1.53125 -2.75 C 1.40625 -2.75 1.320312 -2.734375 1.28125 -2.703125 C 1.238281 -2.671875 1.21875 -2.632812 1.21875 -2.59375 C 1.21875 -2.550781 1.226562 -2.507812 1.25 -2.46875 C 1.269531 -2.4375 1.300781 -2.390625 1.34375 -2.328125 L 1.703125 -1.828125 L 2 -2.25 C 2.039062 -2.3125 2.070312 -2.367188 2.09375 -2.421875 C 2.125 -2.484375 2.140625 -2.539062 2.140625 -2.59375 C 2.140625 -2.65625 2.109375 -2.695312 2.046875 -2.71875 C 1.992188 -2.738281 1.921875 -2.75 1.828125 -2.75 L 1.8125 -2.75 L 1.8125 -2.984375 L 3.03125 -2.984375 L 3.03125 -2.75 L 2.984375 -2.75 C 2.878906 -2.75 2.785156 -2.726562 2.703125 -2.6875 C 2.628906 -2.644531 2.535156 -2.546875 2.421875 -2.390625 L 1.859375 -1.625 L 2.671875 -0.53125 C 2.753906 -0.414062 2.832031 -0.335938 2.90625 -0.296875 C 2.976562 -0.253906 3.046875 -0.234375 3.109375 -0.234375 L 3.1875 -0.234375 L 3.1875 0 L 1.75 0 L 1.75 -0.234375 L 1.78125 -0.234375 C 2 -0.234375 2.109375 -0.296875 2.109375 -0.421875 C 2.109375 -0.460938 2.09375 -0.503906 2.0625 -0.546875 C 2.039062 -0.597656 1.988281 -0.679688 1.90625 -0.796875 L 1.53125 -1.296875 L 1.140625 -0.75 C 1.109375 -0.707031 1.070312 -0.65625 1.03125 -0.59375 C 1 -0.53125 0.984375 -0.46875 0.984375 -0.40625 C 0.984375 -0.34375 1.007812 -0.296875 1.0625 -0.265625 C 1.125 -0.242188 1.210938 -0.234375 1.328125 -0.234375 L 1.359375 -0.234375 L 1.359375 0 Z "/>
</g>
<g id="glyph-1-10">
<path d="M 1.578125 0.0625 C 1.328125 0.0625 1.109375 0.0078125 0.921875 -0.09375 C 0.734375 -0.195312 0.582031 -0.359375 0.46875 -0.578125 C 0.363281 -0.804688 0.3125 -1.101562 0.3125 -1.46875 C 0.3125 -1.863281 0.363281 -2.175781 0.46875 -2.40625 C 0.582031 -2.632812 0.734375 -2.796875 0.921875 -2.890625 C 1.109375 -2.984375 1.316406 -3.03125 1.546875 -3.03125 C 1.703125 -3.03125 1.851562 -3.007812 2 -2.96875 C 2.144531 -2.9375 2.265625 -2.878906 2.359375 -2.796875 C 2.460938 -2.710938 2.515625 -2.601562 2.515625 -2.46875 C 2.515625 -2.34375 2.472656 -2.253906 2.390625 -2.203125 C 2.304688 -2.148438 2.179688 -2.125 2.015625 -2.125 C 2.015625 -2.289062 1.984375 -2.4375 1.921875 -2.5625 C 1.859375 -2.695312 1.734375 -2.765625 1.546875 -2.765625 C 1.398438 -2.765625 1.273438 -2.722656 1.171875 -2.640625 C 1.066406 -2.566406 0.984375 -2.4375 0.921875 -2.25 C 0.867188 -2.070312 0.84375 -1.816406 0.84375 -1.484375 C 0.84375 -1.085938 0.90625 -0.789062 1.03125 -0.59375 C 1.164062 -0.40625 1.382812 -0.3125 1.6875 -0.3125 C 1.863281 -0.3125 2.015625 -0.34375 2.140625 -0.40625 C 2.265625 -0.476562 2.359375 -0.578125 2.421875 -0.703125 C 2.484375 -0.648438 2.515625 -0.578125 2.515625 -0.484375 C 2.515625 -0.390625 2.476562 -0.300781 2.40625 -0.21875 C 2.34375 -0.144531 2.238281 -0.078125 2.09375 -0.015625 C 1.957031 0.0351562 1.785156 0.0625 1.578125 0.0625 Z "/>
</g>
<g id="glyph-1-11">
<path d="M 0.15625 0 L 0.15625 -0.234375 L 0.234375 -0.234375 C 0.359375 -0.234375 0.457031 -0.253906 0.53125 -0.296875 C 0.613281 -0.347656 0.65625 -0.460938 0.65625 -0.640625 L 0.65625 -2.375 C 0.65625 -2.53125 0.613281 -2.628906 0.53125 -2.671875 C 0.445312 -2.722656 0.347656 -2.75 0.234375 -2.75 L 0.21875 -2.75 L 0.21875 -2.984375 L 1.078125 -2.984375 L 1.15625 -2.53125 L 1.1875 -2.53125 C 1.300781 -2.738281 1.425781 -2.875 1.5625 -2.9375 C 1.695312 -3 1.851562 -3.03125 2.03125 -3.03125 C 2.207031 -3.03125 2.363281 -2.992188 2.5 -2.921875 C 2.644531 -2.847656 2.753906 -2.71875 2.828125 -2.53125 L 2.875 -2.53125 C 2.988281 -2.738281 3.117188 -2.875 3.265625 -2.9375 C 3.421875 -3 3.582031 -3.03125 3.75 -3.03125 C 4.03125 -3.03125 4.25 -2.941406 4.40625 -2.765625 C 4.570312 -2.597656 4.65625 -2.328125 4.65625 -1.953125 L 4.65625 -0.640625 C 4.65625 -0.460938 4.691406 -0.347656 4.765625 -0.296875 C 4.847656 -0.253906 4.953125 -0.234375 5.078125 -0.234375 L 5.09375 -0.234375 L 5.09375 0 L 4.140625 0 L 4.140625 -1.921875 C 4.140625 -2.160156 4.09375 -2.347656 4 -2.484375 C 3.914062 -2.617188 3.765625 -2.6875 3.546875 -2.6875 C 3.398438 -2.6875 3.28125 -2.644531 3.1875 -2.5625 C 3.09375 -2.488281 3.023438 -2.390625 2.984375 -2.265625 C 2.953125 -2.140625 2.9375 -2.003906 2.9375 -1.859375 L 2.9375 -0.640625 C 2.9375 -0.460938 2.972656 -0.347656 3.046875 -0.296875 C 3.128906 -0.253906 3.234375 -0.234375 3.359375 -0.234375 L 3.375 -0.234375 L 3.375 0 L 2.40625 0 L 2.40625 -1.921875 C 2.40625 -2.160156 2.359375 -2.347656 2.265625 -2.484375 C 2.179688 -2.617188 2.035156 -2.6875 1.828125 -2.6875 C 1.660156 -2.6875 1.53125 -2.644531 1.4375 -2.5625 C 1.34375 -2.476562 1.273438 -2.363281 1.234375 -2.21875 C 1.191406 -2.082031 1.171875 -1.9375 1.171875 -1.78125 L 1.171875 -0.609375 C 1.171875 -0.441406 1.21875 -0.335938 1.3125 -0.296875 C 1.40625 -0.253906 1.515625 -0.234375 1.640625 -0.234375 L 1.65625 -0.234375 L 1.65625 0 Z "/>
</g>
<g id="glyph-1-12">
<path d="M 0.09375 1.328125 L 0.09375 1.09375 L 0.140625 1.09375 C 0.265625 1.09375 0.367188 1.070312 0.453125 1.03125 C 0.546875 0.988281 0.59375 0.878906 0.59375 0.703125 L 0.59375 -2.375 C 0.59375 -2.53125 0.546875 -2.628906 0.453125 -2.671875 C 0.367188 -2.722656 0.265625 -2.75 0.140625 -2.75 L 0.078125 -2.75 L 0.078125 -2.984375 L 1.046875 -2.984375 L 1.09375 -2.484375 L 1.125 -2.484375 C 1.207031 -2.648438 1.316406 -2.78125 1.453125 -2.875 C 1.585938 -2.976562 1.757812 -3.03125 1.96875 -3.03125 C 2.34375 -3.03125 2.625 -2.90625 2.8125 -2.65625 C 3.007812 -2.414062 3.109375 -2.03125 3.109375 -1.5 C 3.109375 -0.957031 3.007812 -0.5625 2.8125 -0.3125 C 2.625 -0.0625 2.34375 0.0625 1.96875 0.0625 C 1.757812 0.0625 1.585938 0.0117188 1.453125 -0.078125 C 1.316406 -0.171875 1.207031 -0.289062 1.125 -0.4375 L 1.09375 -0.4375 C 1.101562 -0.320312 1.109375 -0.203125 1.109375 -0.078125 C 1.117188 0.0351562 1.125 0.125 1.125 0.1875 L 1.125 0.734375 C 1.125 0.890625 1.164062 0.988281 1.25 1.03125 C 1.34375 1.070312 1.453125 1.09375 1.578125 1.09375 L 1.59375 1.09375 L 1.59375 1.328125 Z M 1.890625 -0.296875 C 2.128906 -0.296875 2.300781 -0.398438 2.40625 -0.609375 C 2.507812 -0.816406 2.5625 -1.113281 2.5625 -1.5 C 2.5625 -1.894531 2.507812 -2.191406 2.40625 -2.390625 C 2.300781 -2.585938 2.125 -2.6875 1.875 -2.6875 C 1.59375 -2.6875 1.394531 -2.585938 1.28125 -2.390625 C 1.175781 -2.191406 1.125 -1.894531 1.125 -1.5 C 1.125 -1.113281 1.175781 -0.816406 1.28125 -0.609375 C 1.394531 -0.398438 1.597656 -0.296875 1.890625 -0.296875 Z "/>
</g>
<g id="glyph-1-13">
<path d="M 0.078125 0 L 0.078125 -0.234375 L 0.140625 -0.234375 C 0.265625 -0.234375 0.367188 -0.253906 0.453125 -0.296875 C 0.546875 -0.347656 0.59375 -0.460938 0.59375 -0.640625 L 0.59375 -3.609375 C 0.59375 -3.773438 0.546875 -3.878906 0.453125 -3.921875 C 0.367188 -3.972656 0.265625 -4 0.140625 -4 L 0.078125 -4 L 0.078125 -4.234375 L 1.125 -4.234375 L 1.125 -0.640625 C 1.125 -0.460938 1.164062 -0.347656 1.25 -0.296875 C 1.34375 -0.253906 1.453125 -0.234375 1.578125 -0.234375 L 1.65625 -0.234375 L 1.65625 0 Z "/>
</g>
</g>
</defs>
<g fill="rgb(18.039216%, 76.862745%, 71.372549%)" fill-opacity="1">
<use xlink:href="#glyph-0-0" x="30" y="26.394531"/>
</g>
<g fill="rgb(18.039216%, 76.862745%, 71.372549%)" fill-opacity="1">
<use xlink:href="#glyph-1-0" x="34" y="26.394531"/>
<use xlink:href="#glyph-1-1" x="35" y="26.394531"/>
<use xlink:href="#glyph-1-2" x="41" y="26.394531"/>
<use xlink:href="#glyph-1-3" x="45" y="26.394531"/>
<use xlink:href="#glyph-1-4" x="47" y="26.394531"/>
<use xlink:href="#glyph-1-5" x="49" y="26.394531"/>
<use xlink:href="#glyph-1-6" x="52" y="26.394531"/>
<use xlink:href="#glyph-1-7" x="54" y="26.394531"/>
<use xlink:href="#glyph-1-8" x="58" y="26.394531"/>
<use xlink:href="#glyph-1-9" x="61" y="26.394531"/>
<use xlink:href="#glyph-1-0" x="64" y="26.394531"/>
<use xlink:href="#glyph-1-10" x="65" y="26.394531"/>
<use xlink:href="#glyph-1-8" x="68" y="26.394531"/>
<use xlink:href="#glyph-1-11" x="71" y="26.394531"/>
<use xlink:href="#glyph-1-12" x="76" y="26.394531"/>
<use xlink:href="#glyph-1-13" x="79" y="26.394531"/>
<use xlink:href="#glyph-1-5" x="81" y="26.394531"/>
<use xlink:href="#glyph-1-4" x="84" y="26.394531"/>
<use xlink:href="#glyph-1-8" x="86" y="26.394531"/>
</g>
</svg>
