<?xml version="1.0" encoding="UTF-8"?>
<svg xmlns="http://www.w3.org/2000/svg" xmlns:xlink="http://www.w3.org/1999/xlink" width="1280" height="720" viewBox="0 0 1280 720">
<defs>
<g>
<g id="glyph-0-0">
<path d="M 2.296875 0.0625 C 1.847656 0.0625 1.476562 -0.0234375 1.1875 -0.203125 C 0.894531 -0.390625 0.675781 -0.644531 0.53125 -0.96875 C 0.394531 -1.289062 0.328125 -1.664062 0.328125 -2.09375 C 0.328125 -2.519531 0.394531 -2.890625 0.53125 -3.203125 C 0.675781 -3.523438 0.894531 -3.773438 1.1875 -3.953125 C 1.488281 -4.128906 1.859375 -4.21875 2.296875 -4.21875 C 2.722656 -4.21875 3.082031 -4.128906 3.375 -3.953125 C 3.664062 -3.773438 3.882812 -3.523438 4.03125 -3.203125 C 4.1875 -2.890625 4.265625 -2.519531 4.265625 -2.09375 C 4.265625 -1.65625 4.1875 -1.273438 4.03125 -0.953125 C 3.882812 -0.640625 3.664062 -0.390625 3.375 -0.203125 C 3.082031 -0.0234375 2.722656 0.0625 2.296875 0.0625 Z M 2.296875 -0.328125 C 2.660156 -0.328125 2.914062 -0.476562 3.0625 -0.78125 C 3.207031 -1.09375 3.28125 -1.53125 3.28125 -2.09375 C 3.28125 -2.644531 3.207031 -3.070312 3.0625 -3.375 C 2.914062 -3.6875 2.660156 -3.84375 2.296875 -3.84375 C 1.929688 -3.84375 1.671875 -3.6875 1.515625 -3.375 C 1.367188 -3.070312 1.296875 -2.644531 1.296875 -2.09375 C 1.296875 -1.53125 1.367188 -1.09375 1.515625 -0.78125 C 1.671875 -0.476562 1.929688 -0.328125 2.296875 -0.328125 Z "/>
</g>
<g id="glyph-0-1">
<path d="M 0.21875 0.578125 L 0.21875 0.15625 L 0.859375 -0.390625 C 1.054688 -0.554688 1.1875 -0.710938 1.25 -0.859375 C 1.320312 -1.003906 1.359375 -1.160156 1.359375 -1.328125 C 1.359375 -1.453125 1.335938 -1.546875 1.296875 -1.609375 C 1.253906 -1.679688 1.1875 -1.71875 1.09375 -1.71875 C 1 -1.71875 0.929688 -1.6875 0.890625 -1.625 C 0.847656 -1.570312 0.816406 -1.5 0.796875 -1.40625 C 0.785156 -1.320312 0.78125 -1.234375 0.78125 -1.140625 C 0.65625 -1.140625 0.535156 -1.164062 0.421875 -1.21875 C 0.316406 -1.269531 0.265625 -1.359375 0.265625 -1.484375 C 0.265625 -1.628906 0.332031 -1.75 0.46875 -1.84375 C 0.613281 -1.9375 0.820312 -1.984375 1.09375 -1.984375 C 1.40625 -1.984375 1.628906 -1.925781 1.765625 -1.8125 C 1.910156 -1.695312 1.984375 -1.546875 1.984375 -1.359375 C 1.984375 -1.242188 1.957031 -1.132812 1.90625 -1.03125 C 1.863281 -0.9375 1.78125 -0.828125 1.65625 -0.703125 C 1.539062 -0.578125 1.367188 -0.425781 1.140625 -0.25 L 0.671875 0.125 L 1.609375 0.125 C 1.679688 0.125 1.734375 0.101562 1.765625 0.0625 C 1.804688 0.0195312 1.832031 -0.0234375 1.84375 -0.078125 L 1.875 -0.234375 L 2.09375 -0.234375 L 2.0625 0.578125 Z "/>
</g>
<g id="glyph-0-2">
</g>
<g id="glyph-0-3">
<path d="M -0.03125 -1.359375 L -0.03125 -1.765625 L 5.859375 -1.765625 L 5.859375 -1.359375 Z "/>
</g>
<g id="glyph-0-4">
<path d="M 2.296875 0.0625 C 1.859375 0.0625 1.492188 -0.0234375 1.203125 -0.203125 C 0.910156 -0.390625 0.691406 -0.640625 0.546875 -0.953125 C 0.398438 -1.273438 0.328125 -1.65625 0.328125 -2.09375 C 0.328125 -2.507812 0.398438 -2.875 0.546875 -3.1875 C 0.703125 -3.507812 0.925781 -3.757812 1.21875 -3.9375 C 1.519531 -4.125 1.894531 -4.21875 2.34375 -4.21875 C 2.78125 -4.21875 3.109375 -4.148438 3.328125 -4.015625 C 3.554688 -3.890625 3.671875 -3.734375 3.671875 -3.546875 C 3.671875 -3.398438 3.601562 -3.273438 3.46875 -3.171875 C 3.34375 -3.078125 3.164062 -3.03125 2.9375 -3.03125 C 2.9375 -3.164062 2.914062 -3.296875 2.875 -3.421875 C 2.832031 -3.546875 2.765625 -3.644531 2.671875 -3.71875 C 2.578125 -3.800781 2.453125 -3.84375 2.296875 -3.84375 C 1.921875 -3.84375 1.660156 -3.691406 1.515625 -3.390625 C 1.378906 -3.085938 1.3125 -2.65625 1.3125 -2.09375 C 1.3125 -1.519531 1.394531 -1.09375 1.5625 -0.8125 C 1.738281 -0.539062 2.035156 -0.40625 2.453125 -0.40625 C 2.648438 -0.40625 2.816406 -0.429688 2.953125 -0.484375 C 3.097656 -0.546875 3.21875 -0.617188 3.3125 -0.703125 C 3.414062 -0.785156 3.5 -0.875 3.5625 -0.96875 C 3.625 -0.914062 3.65625 -0.832031 3.65625 -0.71875 C 3.65625 -0.601562 3.613281 -0.484375 3.53125 -0.359375 C 3.445312 -0.242188 3.304688 -0.144531 3.109375 -0.0625 C 2.910156 0.0195312 2.640625 0.0625 2.296875 0.0625 Z "/>
</g>
<g id="glyph-0-5">
<path d="M 1.78125 0.0625 C 1.3125 0.0625 0.941406 -0.0703125 0.671875 -0.34375 C 0.410156 -0.613281 0.28125 -1.023438 0.28125 -1.578125 C 0.28125 -2.117188 0.40625 -2.523438 0.65625 -2.796875 C 0.914062 -3.066406 1.296875 -3.203125 1.796875 -3.203125 C 2.265625 -3.203125 2.628906 -3.066406 2.890625 -2.796875 C 3.160156 -2.523438 3.296875 -2.117188 3.296875 -1.578125 C 3.296875 -1.023438 3.164062 -0.613281 2.90625 -0.34375 C 2.65625 -0.0703125 2.28125 0.0625 1.78125 0.0625 Z M 1.796875 -0.3125 C 2.015625 -0.3125 2.164062 -0.414062 2.25 -0.625 C 2.34375 -0.84375 2.390625 -1.160156 2.390625 -1.578125 C 2.390625 -1.992188 2.34375 -2.304688 2.25 -2.515625 C 2.164062 -2.722656 2.007812 -2.828125 1.78125 -2.828125 C 1.5625 -2.828125 1.40625 -2.722656 1.3125 -2.515625 C 1.21875 -2.304688 1.171875 -1.992188 1.171875 -1.578125 C 1.171875 -1.160156 1.21875 -0.84375 1.3125 -0.625 C 1.40625 -0.414062 1.566406 -0.3125 1.796875 -0.3125 Z "/>
</g>
<g id="glyph-0-6">
<path d="M 0.109375 0 L 0.109375 -0.3125 L 0.15625 -0.3125 C 0.289062 -0.3125 0.394531 -0.332031 0.46875 -0.375 C 0.539062 -0.425781 0.578125 -0.539062 0.578125 -0.71875 L 0.578125 -2.453125 C 0.578125 -2.617188 0.539062 -2.722656 0.46875 -2.765625 C 0.394531 -2.804688 0.289062 -2.828125 0.15625 -2.828125 L 0.140625 -2.828125 L 0.140625 -3.125 L 1.375 -3.125 L 1.453125 -2.703125 L 1.46875 -2.703125 C 1.5625 -2.867188 1.679688 -2.992188 1.828125 -3.078125 C 1.972656 -3.160156 2.164062 -3.203125 2.40625 -3.203125 C 2.601562 -3.203125 2.773438 -3.160156 2.921875 -3.078125 C 3.066406 -3.003906 3.175781 -2.878906 3.25 -2.703125 L 3.28125 -2.703125 C 3.457031 -3.035156 3.765625 -3.203125 4.203125 -3.203125 C 4.515625 -3.203125 4.753906 -3.109375 4.921875 -2.921875 C 5.097656 -2.742188 5.1875 -2.460938 5.1875 -2.078125 L 5.1875 -0.71875 C 5.1875 -0.539062 5.21875 -0.425781 5.28125 -0.375 C 5.34375 -0.332031 5.441406 -0.3125 5.578125 -0.3125 L 5.59375 -0.3125 L 5.59375 0 L 4.296875 0 L 4.296875 -1.921875 C 4.296875 -2.171875 4.257812 -2.363281 4.1875 -2.5 C 4.125 -2.632812 4.003906 -2.703125 3.828125 -2.703125 C 3.710938 -2.703125 3.613281 -2.664062 3.53125 -2.59375 C 3.457031 -2.519531 3.40625 -2.414062 3.375 -2.28125 C 3.34375 -2.15625 3.328125 -2.019531 3.328125 -1.875 L 3.328125 -0.71875 C 3.328125 -0.539062 3.359375 -0.425781 3.421875 -0.375 C 3.484375 -0.332031 3.582031 -0.3125 3.71875 -0.3125 L 3.734375 -0.3125 L 3.734375 0 L 2.4375 0 L 2.4375 -1.921875 C 2.4375 -2.171875 2.40625 -2.363281 2.34375 -2.5 C 2.28125 -2.632812 2.160156 -2.703125 1.984375 -2.703125 C 1.859375 -2.703125 1.753906 -2.660156 1.671875 -2.578125 C 1.597656 -2.492188 1.546875 -2.382812 1.515625 -2.25 C 1.484375 -2.113281 1.46875 -1.960938 1.46875 -1.796875 L 1.46875 -0.6875 C 1.46875 -0.519531 1.503906 -0.414062 1.578125 -0.375 C 1.660156 -0.332031 1.765625 -0.3125 1.890625 -0.3125 L 1.90625 -0.3125 L 1.90625 0 Z "/>
</g>
<g id="glyph-0-7">
<path d="M 0.078125 1.328125 L 0.078125 1.03125 L 0.140625 1.03125 C 0.203125 1.03125 0.265625 1.019531 0.328125 1 C 0.390625 0.976562 0.441406 0.941406 0.484375 0.890625 C 0.535156 0.835938 0.5625 0.753906 0.5625 0.640625 L 0.5625 -2.40625 C 0.5625 -2.582031 0.523438 -2.691406 0.453125 -2.734375 C 0.378906 -2.785156 0.285156 -2.8125 0.171875 -2.8125 L 0.125 -2.8125 L 0.125 -3.125 L 1.265625 -3.125 L 1.375 -2.671875 L 1.40625 -2.671875 C 1.488281 -2.816406 1.597656 -2.9375 1.734375 -3.03125 C 1.878906 -3.132812 2.066406 -3.1875 2.296875 -3.1875 C 2.679688 -3.1875 2.972656 -3.050781 3.171875 -2.78125 C 3.378906 -2.519531 3.484375 -2.109375 3.484375 -1.546875 C 3.484375 -0.984375 3.378906 -0.570312 3.171875 -0.3125 C 2.972656 -0.0625 2.675781 0.0625 2.28125 0.0625 C 2.070312 0.0625 1.898438 0.0234375 1.765625 -0.046875 C 1.640625 -0.117188 1.535156 -0.21875 1.453125 -0.34375 L 1.421875 -0.34375 C 1.429688 -0.238281 1.4375 -0.128906 1.4375 -0.015625 C 1.445312 0.0976562 1.453125 0.207031 1.453125 0.3125 L 1.453125 0.640625 C 1.453125 0.753906 1.472656 0.835938 1.515625 0.890625 C 1.554688 0.941406 1.609375 0.976562 1.671875 1 C 1.742188 1.019531 1.804688 1.03125 1.859375 1.03125 L 1.984375 1.03125 L 1.984375 1.328125 Z M 2.046875 -0.359375 C 2.234375 -0.359375 2.367188 -0.457031 2.453125 -0.65625 C 2.546875 -0.851562 2.59375 -1.148438 2.59375 -1.546875 C 2.59375 -1.929688 2.550781 -2.226562 2.46875 -2.4375 C 2.382812 -2.644531 2.242188 -2.75 2.046875 -2.75 C 1.816406 -2.75 1.660156 -2.644531 1.578125 -2.4375 C 1.492188 -2.226562 1.453125 -1.929688 1.453125 -1.546875 C 1.453125 -1.148438 1.492188 -0.851562 1.578125 -0.65625 C 1.660156 -0.457031 1.816406 -0.359375 2.046875 -0.359375 Z "/>
</g>
<g id="glyph-0-8">
<path d="M 0.09375 0 L 0.09375 -0.3125 L 0.171875 -0.3125 C 0.285156 -0.3125 0.378906 -0.335938 0.453125 -0.390625 C 0.535156 -0.441406 0.578125 -0.550781 0.578125 -0.71875 L 0.578125 -3.765625 C 0.578125 -3.867188 0.550781 -3.945312 0.5 -4 C 0.457031 -4.050781 0.40625 -4.082031 0.34375 -4.09375 C 0.28125 -4.113281 0.222656 -4.125 0.171875 -4.125 L 0.09375 -4.125 L 0.09375 -4.421875 L 1.46875 -4.421875 L 1.46875 -0.71875 C 1.46875 -0.550781 1.503906 -0.441406 1.578125 -0.390625 C 1.660156 -0.335938 1.757812 -0.3125 1.875 -0.3125 L 1.953125 -0.3125 L 1.953125 0 Z "/>
</g>
<g id="glyph-0-9">
<path d="M 1.78125 0.0625 C 1.28125 0.0625 0.90625 -0.078125 0.65625 -0.359375 C 0.40625 -0.640625 0.28125 -1.035156 0.28125 -1.546875 C 0.28125 -2.085938 0.40625 -2.5 0.65625 -2.78125 C 0.90625 -3.0625 1.257812 -3.203125 1.71875 -3.203125 C 2.144531 -3.203125 2.476562 -3.082031 2.71875 -2.84375 C 2.957031 -2.601562 3.078125 -2.253906 3.078125 -1.796875 L 3.078125 -1.5 L 1.171875 -1.5 C 1.179688 -1.113281 1.253906 -0.828125 1.390625 -0.640625 C 1.523438 -0.460938 1.722656 -0.375 1.984375 -0.375 C 2.179688 -0.375 2.34375 -0.421875 2.46875 -0.515625 C 2.601562 -0.617188 2.703125 -0.734375 2.765625 -0.859375 C 2.816406 -0.847656 2.863281 -0.816406 2.90625 -0.765625 C 2.945312 -0.722656 2.96875 -0.671875 2.96875 -0.609375 C 2.96875 -0.503906 2.925781 -0.398438 2.84375 -0.296875 C 2.757812 -0.203125 2.628906 -0.117188 2.453125 -0.046875 C 2.285156 0.0234375 2.0625 0.0625 1.78125 0.0625 Z M 2.1875 -1.875 C 2.1875 -2.164062 2.148438 -2.394531 2.078125 -2.5625 C 2.015625 -2.738281 1.898438 -2.828125 1.734375 -2.828125 C 1.566406 -2.828125 1.4375 -2.742188 1.34375 -2.578125 C 1.25 -2.421875 1.195312 -2.1875 1.1875 -1.875 Z "/>
</g>
<g id="glyph-0-10">
<path d="M 1 -3.640625 C 0.863281 -3.640625 0.742188 -3.675781 0.640625 -3.75 C 0.546875 -3.820312 0.5 -3.925781 0.5 -4.0625 C 0.5 -4.21875 0.546875 -4.328125 0.640625 -4.390625 C 0.742188 -4.453125 0.863281 -4.484375 1 -4.484375 C 1.132812 -4.484375 1.25 -4.453125 1.34375 -4.390625 C 1.445312 -4.328125 1.5 -4.21875 1.5 -4.0625 C 1.5 -3.925781 1.445312 -3.820312 1.34375 -3.75 C 1.25 -3.675781 1.132812 -3.640625 1 -3.640625 Z M -0.109375 1.40625 L -0.109375 1.03125 L -0.078125 1.03125 C 0.140625 1.03125 0.300781 0.957031 0.40625 0.8125 C 0.519531 0.664062 0.578125 0.394531 0.578125 0 L 0.578125 -2.4375 C 0.578125 -2.601562 0.53125 -2.707031 0.4375 -2.75 C 0.351562 -2.789062 0.25 -2.8125 0.125 -2.8125 L 0.09375 -2.8125 L 0.09375 -3.125 L 1.46875 -3.125 L 1.46875 0.046875 C 1.46875 0.390625 1.40625 0.660156 1.28125 0.859375 C 1.15625 1.054688 0.984375 1.195312 0.765625 1.28125 C 0.546875 1.363281 0.289062 1.40625 0 1.40625 Z "/>
</g>
<g id="glyph-0-11">
<path d="M 1 -3.640625 C 0.851562 -3.640625 0.734375 -3.675781 0.640625 -3.75 C 0.546875 -3.820312 0.5 -3.925781 0.5 -4.0625 C 0.5 -4.21875 0.546875 -4.328125 0.640625 -4.390625 C 0.734375 -4.453125 0.851562 -4.484375 1 -4.484375 C 1.132812 -4.484375 1.25 -4.453125 1.34375 -4.390625 C 1.445312 -4.328125 1.5 -4.21875 1.5 -4.0625 C 1.5 -3.925781 1.445312 -3.820312 1.34375 -3.75 C 1.25 -3.675781 1.132812 -3.640625 1 -3.640625 Z M 0.09375 0 L 0.09375 -0.3125 L 0.171875 -0.3125 C 0.285156 -0.3125 0.378906 -0.335938 0.453125 -0.390625 C 0.535156 -0.441406 0.578125 -0.550781 0.578125 -0.71875 L 0.578125 -2.421875 C 0.578125 -2.578125 0.535156 -2.679688 0.453125 -2.734375 C 0.378906 -2.785156 0.285156 -2.8125 0.171875 -2.8125 L 0.09375 -2.8125 L 0.09375 -3.125 L 1.46875 -3.125 L 1.46875 -0.71875 C 1.46875 -0.550781 1.503906 -0.441406 1.578125 -0.390625 C 1.660156 -0.335938 1.757812 -0.3125 1.875 -0.3125 L 1.953125 -0.3125 L 1.953125 0 Z "/>
</g>
<g id="glyph-0-12">
<path d="M 1.453125 0.0625 C 1.078125 0.0625 0.785156 -0.0664062 0.578125 -0.328125 C 0.367188 -0.585938 0.265625 -1 0.265625 -1.5625 C 0.265625 -2.125 0.363281 -2.535156 0.5625 -2.796875 C 0.769531 -3.054688 1.066406 -3.1875 1.453125 -3.1875 C 1.660156 -3.1875 1.832031 -3.144531 1.96875 -3.0625 C 2.101562 -2.976562 2.210938 -2.875 2.296875 -2.75 L 2.328125 -2.75 C 2.316406 -2.84375 2.3125 -2.945312 2.3125 -3.0625 C 2.3125 -3.1875 2.3125 -3.300781 2.3125 -3.40625 L 2.3125 -3.765625 C 2.3125 -3.921875 2.265625 -4.019531 2.171875 -4.0625 C 2.078125 -4.101562 1.960938 -4.125 1.828125 -4.125 L 1.796875 -4.125 L 1.796875 -4.421875 L 3.1875 -4.421875 L 3.1875 -0.75 C 3.1875 -0.570312 3.226562 -0.453125 3.3125 -0.390625 C 3.394531 -0.335938 3.503906 -0.3125 3.640625 -0.3125 L 3.6875 -0.3125 L 3.6875 0 L 2.53125 0 L 2.390625 -0.453125 L 2.359375 -0.453125 C 2.265625 -0.296875 2.144531 -0.171875 2 -0.078125 C 1.863281 0.0117188 1.679688 0.0625 1.453125 0.0625 Z M 1.703125 -0.375 C 1.929688 -0.375 2.085938 -0.472656 2.171875 -0.671875 C 2.265625 -0.867188 2.3125 -1.164062 2.3125 -1.5625 C 2.3125 -1.945312 2.265625 -2.242188 2.171875 -2.453125 C 2.085938 -2.660156 1.929688 -2.765625 1.703125 -2.765625 C 1.515625 -2.765625 1.378906 -2.660156 1.296875 -2.453125 C 1.210938 -2.242188 1.171875 -1.945312 1.171875 -1.5625 C 1.171875 -1.164062 1.210938 -0.867188 1.296875 -0.671875 C 1.378906 -0.472656 1.515625 -0.375 1.703125 -0.375 Z "/>
</g>
<g id="glyph-0-13">
<path d="M 1.171875 0.0625 C 0.921875 0.0625 0.707031 -0.015625 0.53125 -0.171875 C 0.351562 -0.328125 0.265625 -0.566406 0.265625 -0.890625 C 0.265625 -1.203125 0.367188 -1.429688 0.578125 -1.578125 C 0.796875 -1.734375 1.125 -1.820312 1.5625 -1.84375 L 2.046875 -1.859375 L 2.046875 -2.1875 C 2.046875 -2.394531 2.015625 -2.554688 1.953125 -2.671875 C 1.898438 -2.785156 1.796875 -2.84375 1.640625 -2.84375 C 1.492188 -2.84375 1.390625 -2.785156 1.328125 -2.671875 C 1.265625 -2.566406 1.234375 -2.414062 1.234375 -2.21875 C 0.992188 -2.21875 0.8125 -2.242188 0.6875 -2.296875 C 0.5625 -2.359375 0.5 -2.460938 0.5 -2.609375 C 0.5 -2.753906 0.550781 -2.867188 0.65625 -2.953125 C 0.769531 -3.035156 0.914062 -3.097656 1.09375 -3.140625 C 1.28125 -3.179688 1.484375 -3.203125 1.703125 -3.203125 C 2.109375 -3.203125 2.414062 -3.125 2.625 -2.96875 C 2.832031 -2.820312 2.9375 -2.566406 2.9375 -2.203125 L 2.9375 -0.71875 C 2.9375 -0.5625 2.960938 -0.453125 3.015625 -0.390625 C 3.066406 -0.335938 3.15625 -0.3125 3.28125 -0.3125 L 3.296875 -0.3125 L 3.296875 0 L 2.21875 0 L 2.09375 -0.40625 L 2.046875 -0.40625 C 1.960938 -0.300781 1.878906 -0.210938 1.796875 -0.140625 C 1.722656 -0.078125 1.640625 -0.03125 1.546875 0 C 1.453125 0.0390625 1.328125 0.0625 1.171875 0.0625 Z M 1.5 -0.359375 C 1.664062 -0.359375 1.796875 -0.425781 1.890625 -0.5625 C 1.992188 -0.695312 2.046875 -0.878906 2.046875 -1.109375 L 2.046875 -1.546875 L 1.78125 -1.53125 C 1.550781 -1.519531 1.390625 -1.457031 1.296875 -1.34375 C 1.210938 -1.238281 1.171875 -1.082031 1.171875 -0.875 C 1.171875 -0.53125 1.28125 -0.359375 1.5 -0.359375 Z "/>
</g>
<g id="glyph-0-14">
<path d="M 1.484375 0.0625 C 1.179688 0.0625 0.953125 -0.00390625 0.796875 -0.140625 C 0.640625 -0.273438 0.5625 -0.515625 0.5625 -0.859375 L 0.5625 -2.734375 L 0.125 -2.734375 L 0.125 -3.03125 C 0.25 -3.03125 0.359375 -3.050781 0.453125 -3.09375 C 0.554688 -3.144531 0.632812 -3.203125 0.6875 -3.265625 C 0.8125 -3.398438 0.90625 -3.59375 0.96875 -3.84375 L 1.453125 -3.84375 L 1.453125 -3.125 L 2.1875 -3.125 L 2.1875 -2.734375 L 1.453125 -2.734375 L 1.453125 -0.921875 C 1.453125 -0.742188 1.476562 -0.613281 1.53125 -0.53125 C 1.59375 -0.445312 1.691406 -0.40625 1.828125 -0.40625 C 1.910156 -0.40625 1.984375 -0.410156 2.046875 -0.421875 C 2.117188 -0.429688 2.1875 -0.445312 2.25 -0.46875 L 2.25 -0.09375 C 2.1875 -0.0625 2.085938 -0.03125 1.953125 0 C 1.816406 0.0390625 1.660156 0.0625 1.484375 0.0625 Z "/>
</g>
<g id="glyph-0-15">
<path d="M 1.78125 0.0625 C 1.3125 0.0625 0.941406 -0.0703125 0.671875 -0.34375 C 0.410156 -0.613281 0.28125 -1.023438 0.28125 -1.578125 C 0.28125 -2.117188 0.40625 -2.523438 0.65625 -2.796875 C 0.914062 -3.066406 1.296875 -3.203125 1.796875 -3.203125 C 2.265625 -3.203125 2.628906 -3.066406 2.890625 -2.796875 C 3.160156 -2.523438 3.296875 -2.117188 3.296875 -1.578125 C 3.296875 -1.023438 3.164062 -0.613281 2.90625 -0.34375 C 2.65625 -0.0703125 2.28125 0.0625 1.78125 0.0625 Z M 1.796875 -0.3125 C 2.015625 -0.3125 2.164062 -0.414062 2.25 -0.625 C 2.34375 -0.84375 2.390625 -1.160156 2.390625 -1.578125 C 2.390625 -1.992188 2.34375 -2.304688 2.25 -2.515625 C 2.164062 -2.722656 2.007812 -2.828125 1.78125 -2.828125 C 1.5625 -2.828125 1.40625 -2.722656 1.3125 -2.515625 C 1.21875 -2.304688 1.171875 -1.992188 1.171875 -1.578125 C 1.171875 -1.160156 1.21875 -0.84375 1.3125 -0.625 C 1.40625 -0.414062 1.566406 -0.3125 1.796875 -0.3125 Z M 1.4375 -3.609375 C 1.5 -3.679688 1.5625 -3.765625 1.625 -3.859375 C 1.695312 -3.960938 1.765625 -4.066406 1.828125 -4.171875 C 1.898438 -4.285156 1.957031 -4.382812 2 -4.46875 L 2.921875 -4.46875 L 2.921875 -4.40625 C 2.878906 -4.351562 2.816406 -4.285156 2.734375 -4.203125 C 2.660156 -4.128906 2.566406 -4.050781 2.453125 -3.96875 C 2.347656 -3.882812 2.238281 -3.800781 2.125 -3.71875 C 2.019531 -3.644531 1.921875 -3.582031 1.828125 -3.53125 L 1.4375 -3.53125 Z "/>
</g>
<g id="glyph-0-16">
<path d="M 1.375 1.375 C 0.914062 1.375 0.570312 1.304688 0.34375 1.171875 C 0.125 1.035156 0.015625 0.835938 0.015625 0.578125 C 0.015625 0.378906 0.0859375 0.21875 0.234375 0.09375 C 0.378906 -0.0195312 0.566406 -0.0859375 0.796875 -0.109375 C 0.691406 -0.148438 0.59375 -0.207031 0.5 -0.28125 C 0.40625 -0.363281 0.359375 -0.476562 0.359375 -0.625 C 0.359375 -0.75 0.40625 -0.851562 0.5 -0.9375 C 0.59375 -1.03125 0.722656 -1.125 0.890625 -1.21875 C 0.710938 -1.28125 0.5625 -1.382812 0.4375 -1.53125 C 0.320312 -1.6875 0.265625 -1.882812 0.265625 -2.125 C 0.265625 -2.46875 0.363281 -2.734375 0.5625 -2.921875 C 0.769531 -3.109375 1.085938 -3.203125 1.515625 -3.203125 C 1.660156 -3.203125 1.789062 -3.1875 1.90625 -3.15625 C 2.03125 -3.125 2.132812 -3.082031 2.21875 -3.03125 C 2.300781 -3.125 2.390625 -3.203125 2.484375 -3.265625 C 2.585938 -3.335938 2.710938 -3.375 2.859375 -3.375 C 2.984375 -3.375 3.078125 -3.335938 3.140625 -3.265625 C 3.210938 -3.203125 3.25 -3.125 3.25 -3.03125 C 3.25 -2.9375 3.21875 -2.851562 3.15625 -2.78125 C 3.101562 -2.71875 3 -2.6875 2.84375 -2.6875 C 2.84375 -2.757812 2.820312 -2.816406 2.78125 -2.859375 C 2.75 -2.898438 2.707031 -2.921875 2.65625 -2.921875 C 2.601562 -2.921875 2.5625 -2.914062 2.53125 -2.90625 C 2.5 -2.894531 2.46875 -2.882812 2.4375 -2.875 C 2.519531 -2.789062 2.585938 -2.691406 2.640625 -2.578125 C 2.703125 -2.460938 2.734375 -2.316406 2.734375 -2.140625 C 2.734375 -1.835938 2.632812 -1.585938 2.4375 -1.390625 C 2.238281 -1.191406 1.929688 -1.09375 1.515625 -1.09375 C 1.472656 -1.09375 1.414062 -1.09375 1.34375 -1.09375 C 1.269531 -1.101562 1.21875 -1.113281 1.1875 -1.125 C 1.125 -1.101562 1.070312 -1.0625 1.03125 -1 C 0.988281 -0.945312 0.96875 -0.890625 0.96875 -0.828125 C 0.96875 -0.703125 1.066406 -0.640625 1.265625 -0.640625 L 1.953125 -0.640625 C 2.335938 -0.640625 2.617188 -0.554688 2.796875 -0.390625 C 2.972656 -0.234375 3.0625 -0.0195312 3.0625 0.25 C 3.0625 0.601562 2.921875 0.878906 2.640625 1.078125 C 2.367188 1.273438 1.945312 1.375 1.375 1.375 Z M 1.5 -1.453125 C 1.675781 -1.453125 1.789062 -1.507812 1.84375 -1.625 C 1.90625 -1.75 1.9375 -1.914062 1.9375 -2.125 C 1.9375 -2.34375 1.90625 -2.515625 1.84375 -2.640625 C 1.78125 -2.773438 1.664062 -2.84375 1.5 -2.84375 C 1.320312 -2.84375 1.203125 -2.773438 1.140625 -2.640625 C 1.085938 -2.503906 1.0625 -2.332031 1.0625 -2.125 C 1.0625 -1.914062 1.085938 -1.75 1.140625 -1.625 C 1.203125 -1.507812 1.320312 -1.453125 1.5 -1.453125 Z M 1.390625 1.03125 C 1.734375 1.03125 1.976562 0.976562 2.125 0.875 C 2.28125 0.769531 2.359375 0.628906 2.359375 0.453125 C 2.359375 0.222656 2.203125 0.109375 1.890625 0.109375 L 1.21875 0.109375 C 1.132812 0.109375 1.050781 0.117188 0.96875 0.140625 C 0.894531 0.171875 0.832031 0.21875 0.78125 0.28125 C 0.726562 0.351562 0.703125 0.445312 0.703125 0.5625 C 0.703125 0.875 0.929688 1.03125 1.390625 1.03125 Z "/>
</g>
<g id="glyph-0-17">
<path d="M 1.71875 0.0625 C 1.425781 0.0625 1.171875 0.0078125 0.953125 -0.09375 C 0.742188 -0.195312 0.578125 -0.363281 0.453125 -0.59375 C 0.335938 -0.832031 0.28125 -1.148438 0.28125 -1.546875 C 0.28125 -1.972656 0.34375 -2.300781 0.46875 -2.53125 C 0.59375 -2.769531 0.757812 -2.941406 0.96875 -3.046875 C 1.1875 -3.148438 1.429688 -3.203125 1.703125 -3.203125 C 2.078125 -3.203125 2.363281 -3.140625 2.5625 -3.015625 C 2.757812 -2.898438 2.859375 -2.757812 2.859375 -2.59375 C 2.859375 -2.5 2.835938 -2.414062 2.796875 -2.34375 C 2.753906 -2.269531 2.675781 -2.207031 2.5625 -2.15625 C 2.457031 -2.113281 2.304688 -2.09375 2.109375 -2.09375 C 2.109375 -2.226562 2.09375 -2.351562 2.0625 -2.46875 C 2.039062 -2.582031 2.003906 -2.671875 1.953125 -2.734375 C 1.898438 -2.804688 1.820312 -2.84375 1.71875 -2.84375 C 1.613281 -2.84375 1.519531 -2.800781 1.4375 -2.71875 C 1.351562 -2.644531 1.285156 -2.515625 1.234375 -2.328125 C 1.191406 -2.148438 1.171875 -1.894531 1.171875 -1.5625 C 1.171875 -1.164062 1.222656 -0.867188 1.328125 -0.671875 C 1.441406 -0.472656 1.617188 -0.375 1.859375 -0.375 C 2.066406 -0.375 2.242188 -0.421875 2.390625 -0.515625 C 2.535156 -0.609375 2.640625 -0.71875 2.703125 -0.84375 C 2.753906 -0.820312 2.789062 -0.785156 2.8125 -0.734375 C 2.832031 -0.679688 2.84375 -0.628906 2.84375 -0.578125 C 2.84375 -0.484375 2.800781 -0.382812 2.71875 -0.28125 C 2.644531 -0.1875 2.523438 -0.101562 2.359375 -0.03125 C 2.191406 0.0273438 1.976562 0.0625 1.71875 0.0625 Z "/>
</g>
</g>
</defs>
<g fill="rgb(93.72549%, 27.843137%, 43.529412%)" fill-opacity="1">
<use xlink:href="#glyph-0-0" x="30" y="26.235352"/>
<use xlink:href="#glyph-0-1" x="35" y="26.235352"/>
<use xlink:href="#glyph-0-2" x="37" y="26.235352"/>
<use xlink:href="#glyph-0-3" x="39" y="26.235352"/>
<use xlink:href="#glyph-0-2" x="45" y="26.235352"/>
<use xlink:href="#glyph-0-4" x="47" y="26.235352"/>
<use xlink:href="#glyph-0-5" x="51" y="26.235352"/>
<use xlink:href="#glyph-0-6" x="55" y="26.235352"/>
<use xlink:href="#glyph-0-7" x="61" y="26.235352"/>
<use xlink:href="#glyph-0-8" x="65" y="26.235352"/>
<use xlink:href="#glyph-0-9" x="67" y="26.235352"/>
<use xlink:href="#glyph-0-10" x="70" y="26.235352"/>
<use xlink:href="#glyph-0-11" x="72" y="26.235352"/>
<use xlink:href="#glyph-0-12" x="74" y="26.235352"/>
<use xlink:href="#glyph-0-13" x="78" y="26.235352"/>
<use xlink:href="#glyph-0-12" x="82" y="26.235352"/>
<use xlink:href="#glyph-0-2" x="86" y="26.235352"/>
<use xlink:href="#glyph-0-14" x="88" y="26.235352"/>
<use xlink:href="#glyph-0-5" x="90" y="26.235352"/>
<use xlink:href="#glyph-0-7" x="94" y="26.235352"/>
<use xlink:href="#glyph-0-5" x="98" y="26.235352"/>
<use xlink:href="#glyph-0-8" x="102" y="26.235352"/>
<use xlink:href="#glyph-0-15" x="104" y="26.235352"/>
<use xlink:href="#glyph-0-16" x="108" y="26.235352"/>
<use xlink:href="#glyph-0-11" x="111" y="26.235352"/>
<use xlink:href="#glyph-0-17" x="113" y="26.235352"/>
<use xlink:href="#glyph-0-13" x="116" y="26.235352"/>
</g>
</svg>
