<?xml version="1.0" encoding="UTF-8"?>
<svg xmlns="http://www.w3.org/2000/svg" xmlns:xlink="http://www.w3.org/1999/xlink" width="1920" height="1080" viewBox="0 0 1920 1080">
<defs>
<g>
<g id="glyph-0-0">
<path d="M 0.171875 0 L 0.171875 -0.203125 L 0.234375 -0.203125 C 0.347656 -0.203125 0.441406 -0.21875 0.515625 -0.25 C 0.585938 -0.289062 0.625 -0.382812 0.625 -0.53125 L 0.625 -2.84375 C 0.625 -2.988281 0.582031 -3.078125 0.5 -3.109375 C 0.425781 -3.148438 0.335938 -3.171875 0.234375 -3.171875 L 0.171875 -3.171875 L 0.171875 -3.375 L 1.046875 -3.375 L 2.734375 -0.765625 L 2.734375 -2.84375 C 2.734375 -2.988281 2.691406 -3.078125 2.609375 -3.109375 C 2.535156 -3.148438 2.445312 -3.171875 2.34375 -3.171875 L 2.28125 -3.171875 L 2.28125 -3.375 L 3.46875 -3.375 L 3.46875 -3.171875 L 3.40625 -3.171875 C 3.300781 -3.171875 3.207031 -3.148438 3.125 -3.109375 C 3.050781 -3.066406 3.015625 -2.972656 3.015625 -2.828125 L 3.015625 0 L 2.6875 0 L 0.921875 -2.71875 L 0.921875 -0.53125 C 0.921875 -0.382812 0.957031 -0.289062 1.03125 -0.25 C 1.101562 -0.21875 1.191406 -0.203125 1.296875 -0.203125 L 1.359375 -0.203125 L 1.359375 0 Z "/>
</g>
<g id="glyph-0-1">
<path d="M 1.171875 0.046875 C 0.859375 0.046875 0.617188 -0.015625 0.453125 -0.140625 C 0.296875 -0.265625 0.21875 -0.425781 0.21875 -0.625 C 0.21875 -0.71875 0.25 -0.789062 0.3125 -0.84375 C 0.375 -0.90625 0.457031 -0.9375 0.5625 -0.9375 C 0.570312 -0.800781 0.597656 -0.675781 0.640625 -0.5625 C 0.679688 -0.445312 0.75 -0.351562 0.84375 -0.28125 C 0.9375 -0.21875 1.054688 -0.1875 1.203125 -0.1875 C 1.410156 -0.1875 1.570312 -0.234375 1.6875 -0.328125 C 1.8125 -0.429688 1.875 -0.582031 1.875 -0.78125 C 1.875 -0.894531 1.847656 -0.988281 1.796875 -1.0625 C 1.753906 -1.144531 1.679688 -1.222656 1.578125 -1.296875 C 1.472656 -1.367188 1.328125 -1.441406 1.140625 -1.515625 C 0.847656 -1.628906 0.628906 -1.765625 0.484375 -1.921875 C 0.347656 -2.085938 0.28125 -2.300781 0.28125 -2.5625 C 0.28125 -2.738281 0.320312 -2.890625 0.40625 -3.015625 C 0.5 -3.148438 0.625 -3.25 0.78125 -3.3125 C 0.9375 -3.382812 1.113281 -3.421875 1.3125 -3.421875 C 1.59375 -3.421875 1.804688 -3.363281 1.953125 -3.25 C 2.109375 -3.144531 2.1875 -3.023438 2.1875 -2.890625 C 2.1875 -2.785156 2.148438 -2.707031 2.078125 -2.65625 C 2.015625 -2.601562 1.929688 -2.578125 1.828125 -2.578125 C 1.828125 -2.679688 1.804688 -2.773438 1.765625 -2.859375 C 1.734375 -2.953125 1.675781 -3.03125 1.59375 -3.09375 C 1.519531 -3.15625 1.421875 -3.1875 1.296875 -3.1875 C 1.109375 -3.1875 0.960938 -3.132812 0.859375 -3.03125 C 0.765625 -2.9375 0.71875 -2.804688 0.71875 -2.640625 C 0.71875 -2.515625 0.738281 -2.40625 0.78125 -2.3125 C 0.832031 -2.226562 0.910156 -2.148438 1.015625 -2.078125 C 1.117188 -2.015625 1.265625 -1.945312 1.453125 -1.875 C 1.722656 -1.757812 1.9375 -1.628906 2.09375 -1.484375 C 2.25 -1.335938 2.328125 -1.144531 2.328125 -0.90625 C 2.328125 -0.601562 2.222656 -0.367188 2.015625 -0.203125 C 1.804688 -0.0351562 1.523438 0.046875 1.171875 0.046875 Z "/>
</g>
<g id="glyph-0-2">
<path d="M 1.890625 0.046875 C 1.523438 0.046875 1.222656 -0.0234375 0.984375 -0.171875 C 0.742188 -0.316406 0.5625 -0.519531 0.4375 -0.78125 C 0.320312 -1.039062 0.265625 -1.34375 0.265625 -1.6875 C 0.265625 -2.03125 0.328125 -2.332031 0.453125 -2.59375 C 0.578125 -2.851562 0.757812 -3.054688 1 -3.203125 C 1.25 -3.347656 1.554688 -3.421875 1.921875 -3.421875 C 2.265625 -3.421875 2.523438 -3.367188 2.703125 -3.265625 C 2.878906 -3.160156 2.96875 -3.035156 2.96875 -2.890625 C 2.96875 -2.785156 2.921875 -2.703125 2.828125 -2.640625 C 2.742188 -2.585938 2.644531 -2.5625 2.53125 -2.5625 C 2.53125 -2.65625 2.507812 -2.75 2.46875 -2.84375 C 2.425781 -2.9375 2.359375 -3.015625 2.265625 -3.078125 C 2.179688 -3.140625 2.0625 -3.171875 1.90625 -3.171875 C 1.5 -3.171875 1.210938 -3.039062 1.046875 -2.78125 C 0.878906 -2.519531 0.796875 -2.15625 0.796875 -1.6875 C 0.796875 -1.21875 0.882812 -0.851562 1.0625 -0.59375 C 1.238281 -0.34375 1.539062 -0.21875 1.96875 -0.21875 C 2.0625 -0.21875 2.148438 -0.222656 2.234375 -0.234375 C 2.316406 -0.242188 2.390625 -0.257812 2.453125 -0.28125 L 2.453125 -1.03125 C 2.453125 -1.175781 2.414062 -1.265625 2.34375 -1.296875 C 2.269531 -1.335938 2.179688 -1.359375 2.078125 -1.359375 L 2.046875 -1.359375 L 2.046875 -1.5625 L 3.28125 -1.5625 L 3.28125 -1.359375 L 3.265625 -1.359375 C 3.171875 -1.359375 3.09375 -1.335938 3.03125 -1.296875 C 2.96875 -1.253906 2.9375 -1.160156 2.9375 -1.015625 L 2.9375 -0.171875 C 2.78125 -0.0976562 2.617188 -0.0390625 2.453125 0 C 2.285156 0.03125 2.097656 0.046875 1.890625 0.046875 Z "/>
</g>
<g id="glyph-0-3">
<path d="M 0 0 L 0 -0.203125 L 0.09375 -0.203125 C 0.175781 -0.203125 0.238281 -0.222656 0.28125 -0.265625 C 0.332031 -0.316406 0.390625 -0.414062 0.453125 -0.5625 L 1.5 -3.375 L 1.859375 -3.375 L 2.9375 -0.453125 C 2.96875 -0.347656 3.003906 -0.28125 3.046875 -0.25 C 3.097656 -0.21875 3.171875 -0.203125 3.265625 -0.203125 L 3.328125 -0.203125 L 3.328125 0 L 2.03125 0 L 2.03125 -0.203125 L 2.140625 -0.203125 C 2.328125 -0.203125 2.421875 -0.273438 2.421875 -0.421875 C 2.421875 -0.453125 2.414062 -0.476562 2.40625 -0.5 C 2.40625 -0.53125 2.398438 -0.5625 2.390625 -0.59375 L 2.1875 -1.125 L 0.953125 -1.125 L 0.78125 -0.625 C 0.75 -0.550781 0.734375 -0.484375 0.734375 -0.421875 C 0.734375 -0.273438 0.835938 -0.203125 1.046875 -0.203125 L 1.15625 -0.203125 L 1.15625 0 Z M 1.046875 -1.359375 L 2.109375 -1.359375 L 1.8125 -2.1875 C 1.757812 -2.320312 1.710938 -2.453125 1.671875 -2.578125 C 1.640625 -2.703125 1.609375 -2.820312 1.578125 -2.9375 C 1.554688 -2.820312 1.523438 -2.710938 1.484375 -2.609375 C 1.453125 -2.503906 1.410156 -2.378906 1.359375 -2.234375 Z "/>
</g>
<g id="glyph-0-4">
<path d="M 0.125 -1.109375 L 0.125 -1.46875 L 1.34375 -1.46875 L 1.34375 -1.109375 Z "/>
</g>
<g id="glyph-0-5">
<path d="M 0.171875 0 L 0.171875 -0.203125 L 0.234375 -0.203125 C 0.347656 -0.203125 0.441406 -0.21875 0.515625 -0.25 C 0.585938 -0.289062 0.625 -0.382812 0.625 -0.53125 L 0.625 -2.828125 C 0.625 -2.972656 0.585938 -3.066406 0.515625 -3.109375 C 0.441406 -3.148438 0.347656 -3.171875 0.234375 -3.171875 L 0.171875 -3.171875 L 0.171875 -3.375 L 1.546875 -3.375 L 1.546875 -3.171875 L 1.484375 -3.171875 C 1.378906 -3.171875 1.289062 -3.148438 1.21875 -3.109375 C 1.144531 -3.066406 1.109375 -2.972656 1.109375 -2.828125 L 1.109375 -0.53125 C 1.109375 -0.382812 1.144531 -0.289062 1.21875 -0.25 C 1.289062 -0.21875 1.378906 -0.203125 1.484375 -0.203125 L 1.546875 -0.203125 L 1.546875 0 Z "/>
</g>
<g id="glyph-0-6">
</g>
<g id="glyph-0-7">
<path d="M 1.359375 0.046875 C 1.015625 0.046875 0.742188 -0.0625 0.546875 -0.28125 C 0.359375 -0.507812 0.265625 -0.832031 0.265625 -1.25 C 0.265625 -1.6875 0.351562 -2.015625 0.53125 -2.234375 C 0.71875 -2.460938 0.976562 -2.578125 1.3125 -2.578125 C 1.613281 -2.578125 1.847656 -2.484375 2.015625 -2.296875 C 2.191406 -2.109375 2.28125 -1.828125 2.28125 -1.453125 L 2.28125 -1.234375 L 0.71875 -1.234375 C 0.726562 -0.890625 0.789062 -0.640625 0.90625 -0.484375 C 1.019531 -0.328125 1.191406 -0.25 1.421875 -0.25 C 1.585938 -0.25 1.726562 -0.28125 1.84375 -0.34375 C 1.957031 -0.414062 2.039062 -0.492188 2.09375 -0.578125 C 2.113281 -0.566406 2.132812 -0.546875 2.15625 -0.515625 C 2.175781 -0.492188 2.1875 -0.460938 2.1875 -0.421875 C 2.1875 -0.359375 2.15625 -0.289062 2.09375 -0.21875 C 2.03125 -0.144531 1.9375 -0.0820312 1.8125 -0.03125 C 1.695312 0.0195312 1.546875 0.046875 1.359375 0.046875 Z M 1.8125 -1.484375 C 1.8125 -1.734375 1.769531 -1.9375 1.6875 -2.09375 C 1.613281 -2.25 1.484375 -2.328125 1.296875 -2.328125 C 1.117188 -2.328125 0.984375 -2.253906 0.890625 -2.109375 C 0.796875 -1.960938 0.742188 -1.753906 0.734375 -1.484375 Z "/>
</g>
<g id="glyph-0-8">
<path d="M 0.375 -2.078125 C 0.332031 -2.179688 0.285156 -2.25 0.234375 -2.28125 C 0.191406 -2.3125 0.117188 -2.328125 0.015625 -2.328125 L 0.015625 -2.53125 L 1.203125 -2.53125 L 1.203125 -2.328125 L 1.140625 -2.328125 C 0.953125 -2.328125 0.859375 -2.253906 0.859375 -2.109375 C 0.859375 -2.078125 0.859375 -2.046875 0.859375 -2.015625 C 0.867188 -1.992188 0.878906 -1.96875 0.890625 -1.9375 L 1.21875 -1.03125 C 1.257812 -0.914062 1.300781 -0.789062 1.34375 -0.65625 C 1.382812 -0.519531 1.414062 -0.410156 1.4375 -0.328125 C 1.445312 -0.390625 1.476562 -0.484375 1.53125 -0.609375 C 1.582031 -0.742188 1.628906 -0.867188 1.671875 -0.984375 L 2.015625 -1.890625 C 2.035156 -1.972656 2.046875 -2.039062 2.046875 -2.09375 C 2.046875 -2.25 1.941406 -2.328125 1.734375 -2.328125 L 1.703125 -2.328125 L 1.703125 -2.53125 L 2.71875 -2.53125 L 2.71875 -2.328125 L 2.65625 -2.328125 C 2.570312 -2.328125 2.503906 -2.300781 2.453125 -2.25 C 2.410156 -2.207031 2.359375 -2.113281 2.296875 -1.96875 L 1.5625 0 L 1.125 0 Z "/>
</g>
<g id="glyph-0-9">
<path d="M 1.359375 0.046875 C 1.015625 0.046875 0.742188 -0.0625 0.546875 -0.28125 C 0.359375 -0.5 0.265625 -0.828125 0.265625 -1.265625 C 0.265625 -1.710938 0.359375 -2.039062 0.546875 -2.25 C 0.734375 -2.46875 1.007812 -2.578125 1.375 -2.578125 C 1.707031 -2.578125 1.972656 -2.46875 2.171875 -2.25 C 2.367188 -2.039062 2.46875 -1.710938 2.46875 -1.265625 C 2.46875 -0.828125 2.375 -0.5 2.1875 -0.28125 C 2 -0.0625 1.722656 0.046875 1.359375 0.046875 Z M 1.359375 -0.203125 C 1.597656 -0.203125 1.765625 -0.289062 1.859375 -0.46875 C 1.953125 -0.644531 2 -0.910156 2 -1.265625 C 2 -1.617188 1.953125 -1.882812 1.859375 -2.0625 C 1.765625 -2.238281 1.597656 -2.328125 1.359375 -2.328125 C 1.117188 -2.328125 0.953125 -2.238281 0.859375 -2.0625 C 0.765625 -1.882812 0.71875 -1.617188 0.71875 -1.265625 C 0.71875 -0.910156 0.765625 -0.644531 0.859375 -0.46875 C 0.960938 -0.289062 1.128906 -0.203125 1.359375 -0.203125 Z "/>
</g>
<g id="glyph-0-10">
<path d="M 0.0625 0 L 0.0625 -0.203125 L 0.125 -0.203125 C 0.226562 -0.203125 0.316406 -0.21875 0.390625 -0.25 C 0.472656 -0.289062 0.515625 -0.382812 0.515625 -0.53125 L 0.515625 -3.0625 C 0.515625 -3.207031 0.472656 -3.296875 0.390625 -3.328125 C 0.316406 -3.367188 0.226562 -3.390625 0.125 -3.390625 L 0.0625 -3.390625 L 0.0625 -3.59375 L 0.953125 -3.59375 L 0.953125 -0.53125 C 0.953125 -0.382812 0.988281 -0.289062 1.0625 -0.25 C 1.144531 -0.21875 1.238281 -0.203125 1.34375 -0.203125 L 1.40625 -0.203125 L 1.40625 0 Z "/>
</g>
<g id="glyph-0-11">
<path d="M 1.28125 0.046875 C 1.039062 0.046875 0.851562 -0.0234375 0.71875 -0.171875 C 0.582031 -0.316406 0.515625 -0.550781 0.515625 -0.875 L 0.515625 -2.015625 C 0.515625 -2.148438 0.472656 -2.234375 0.390625 -2.265625 C 0.316406 -2.304688 0.226562 -2.328125 0.125 -2.328125 L 0.109375 -2.328125 L 0.109375 -2.53125 L 0.953125 -2.53125 L 0.953125 -0.90625 C 0.953125 -0.695312 0.984375 -0.535156 1.046875 -0.421875 C 1.117188 -0.304688 1.253906 -0.25 1.453125 -0.25 C 1.660156 -0.25 1.8125 -0.316406 1.90625 -0.453125 C 2 -0.597656 2.046875 -0.785156 2.046875 -1.015625 L 2.046875 -1.984375 C 2.046875 -2.140625 2.003906 -2.234375 1.921875 -2.265625 C 1.847656 -2.304688 1.757812 -2.328125 1.65625 -2.328125 L 1.640625 -2.328125 L 1.640625 -2.53125 L 2.484375 -2.53125 L 2.484375 -0.515625 C 2.484375 -0.378906 2.519531 -0.289062 2.59375 -0.25 C 2.675781 -0.21875 2.769531 -0.203125 2.875 -0.203125 L 2.890625 -0.203125 L 2.890625 0 L 2.140625 0 L 2.078125 -0.375 L 2.046875 -0.375 C 1.953125 -0.207031 1.835938 -0.09375 1.703125 -0.03125 C 1.578125 0.0195312 1.4375 0.046875 1.28125 0.046875 Z "/>
</g>
<g id="glyph-0-12">
<path d="M 1.328125 0.046875 C 1.128906 0.046875 0.945312 0.00390625 0.78125 -0.078125 C 0.613281 -0.171875 0.484375 -0.3125 0.390625 -0.5 C 0.304688 -0.6875 0.265625 -0.9375 0.265625 -1.25 C 0.265625 -1.582031 0.304688 -1.84375 0.390625 -2.03125 C 0.484375 -2.226562 0.609375 -2.367188 0.765625 -2.453125 C 0.929688 -2.535156 1.113281 -2.578125 1.3125 -2.578125 C 1.445312 -2.578125 1.578125 -2.554688 1.703125 -2.515625 C 1.828125 -2.484375 1.929688 -2.429688 2.015625 -2.359375 C 2.097656 -2.296875 2.140625 -2.207031 2.140625 -2.09375 C 2.140625 -1.988281 2.101562 -1.910156 2.03125 -1.859375 C 1.957031 -1.816406 1.851562 -1.796875 1.71875 -1.796875 C 1.71875 -1.941406 1.6875 -2.066406 1.625 -2.171875 C 1.570312 -2.285156 1.46875 -2.34375 1.3125 -2.34375 C 1.1875 -2.34375 1.078125 -2.3125 0.984375 -2.25 C 0.898438 -2.1875 0.832031 -2.078125 0.78125 -1.921875 C 0.738281 -1.765625 0.71875 -1.539062 0.71875 -1.25 C 0.71875 -0.914062 0.769531 -0.664062 0.875 -0.5 C 0.988281 -0.34375 1.175781 -0.265625 1.4375 -0.265625 C 1.582031 -0.265625 1.707031 -0.289062 1.8125 -0.34375 C 1.925781 -0.40625 2.007812 -0.488281 2.0625 -0.59375 C 2.113281 -0.550781 2.140625 -0.488281 2.140625 -0.40625 C 2.140625 -0.332031 2.109375 -0.257812 2.046875 -0.1875 C 1.984375 -0.125 1.894531 -0.0664062 1.78125 -0.015625 C 1.664062 0.0234375 1.515625 0.046875 1.328125 0.046875 Z "/>
</g>
<g id="glyph-0-13">
<path d="M 0.765625 -3 C 0.679688 -3 0.613281 -3.019531 0.5625 -3.0625 C 0.507812 -3.113281 0.484375 -3.191406 0.484375 -3.296875 C 0.484375 -3.398438 0.507812 -3.472656 0.5625 -3.515625 C 0.613281 -3.566406 0.679688 -3.59375 0.765625 -3.59375 C 0.835938 -3.59375 0.898438 -3.566406 0.953125 -3.515625 C 1.003906 -3.472656 1.03125 -3.398438 1.03125 -3.296875 C 1.03125 -3.191406 1.003906 -3.113281 0.953125 -3.0625 C 0.898438 -3.019531 0.835938 -3 0.765625 -3 Z M 0.109375 0 L 0.109375 -0.203125 L 0.171875 -0.203125 C 0.273438 -0.203125 0.363281 -0.21875 0.4375 -0.25 C 0.519531 -0.289062 0.5625 -0.378906 0.5625 -0.515625 L 0.5625 -2.015625 C 0.5625 -2.148438 0.519531 -2.234375 0.4375 -2.265625 C 0.363281 -2.304688 0.273438 -2.328125 0.171875 -2.328125 L 0.15625 -2.328125 L 0.15625 -2.53125 L 1 -2.53125 L 1 -0.53125 C 1 -0.382812 1.035156 -0.289062 1.109375 -0.25 C 1.191406 -0.21875 1.285156 -0.203125 1.390625 -0.203125 L 1.453125 -0.203125 L 1.453125 0 Z "/>
</g>
<g id="glyph-0-14">
<path d="M 0.125 0 L 0.125 -0.203125 L 0.171875 -0.203125 C 0.273438 -0.203125 0.363281 -0.21875 0.4375 -0.25 C 0.519531 -0.289062 0.5625 -0.382812 0.5625 -0.53125 L 0.5625 -2.015625 C 0.5625 -2.148438 0.519531 -2.234375 0.4375 -2.265625 C 0.363281 -2.304688 0.273438 -2.328125 0.171875 -2.328125 L 0.15625 -2.328125 L 0.15625 -2.53125 L 0.921875 -2.53125 L 0.984375 -2.140625 L 1 -2.140625 C 1.101562 -2.316406 1.210938 -2.429688 1.328125 -2.484375 C 1.453125 -2.546875 1.585938 -2.578125 1.734375 -2.578125 C 1.984375 -2.578125 2.175781 -2.503906 2.3125 -2.359375 C 2.457031 -2.210938 2.53125 -1.976562 2.53125 -1.65625 L 2.53125 -0.53125 C 2.53125 -0.382812 2.5625 -0.289062 2.625 -0.25 C 2.695312 -0.21875 2.785156 -0.203125 2.890625 -0.203125 L 2.90625 -0.203125 L 2.90625 0 L 2.09375 0 L 2.09375 -1.625 C 2.09375 -1.832031 2.050781 -1.992188 1.96875 -2.109375 C 1.894531 -2.222656 1.765625 -2.28125 1.578125 -2.28125 C 1.429688 -2.28125 1.316406 -2.242188 1.234375 -2.171875 C 1.148438 -2.097656 1.085938 -2.003906 1.046875 -1.890625 C 1.015625 -1.773438 1 -1.648438 1 -1.515625 L 1 -0.515625 C 1 -0.378906 1.035156 -0.289062 1.109375 -0.25 C 1.179688 -0.21875 1.269531 -0.203125 1.375 -0.203125 L 1.40625 -0.203125 L 1.40625 0 Z "/>
</g>
<g id="glyph-0-15">
<path d="M 0.96875 0.046875 C 0.757812 0.046875 0.582031 -0.015625 0.4375 -0.140625 C 0.300781 -0.265625 0.234375 -0.453125 0.234375 -0.703125 C 0.234375 -0.953125 0.320312 -1.132812 0.5 -1.25 C 0.675781 -1.375 0.945312 -1.445312 1.3125 -1.46875 L 1.703125 -1.484375 L 1.703125 -1.765625 C 1.703125 -1.878906 1.691406 -1.976562 1.671875 -2.0625 C 1.648438 -2.144531 1.609375 -2.210938 1.546875 -2.265625 C 1.484375 -2.316406 1.390625 -2.34375 1.265625 -2.34375 C 1.140625 -2.34375 1.046875 -2.316406 0.984375 -2.265625 C 0.921875 -2.222656 0.878906 -2.164062 0.859375 -2.09375 C 0.835938 -2.019531 0.828125 -1.929688 0.828125 -1.828125 C 0.703125 -1.828125 0.601562 -1.847656 0.53125 -1.890625 C 0.46875 -1.941406 0.4375 -2.019531 0.4375 -2.125 C 0.4375 -2.226562 0.472656 -2.3125 0.546875 -2.375 C 0.628906 -2.445312 0.734375 -2.5 0.859375 -2.53125 C 0.984375 -2.5625 1.125 -2.578125 1.28125 -2.578125 C 1.570312 -2.578125 1.785156 -2.515625 1.921875 -2.390625 C 2.066406 -2.265625 2.140625 -2.054688 2.140625 -1.765625 L 2.140625 -0.53125 C 2.140625 -0.40625 2.160156 -0.316406 2.203125 -0.265625 C 2.253906 -0.222656 2.332031 -0.203125 2.4375 -0.203125 L 2.453125 -0.203125 L 2.453125 0 L 1.8125 0 L 1.734375 -0.40625 L 1.703125 -0.40625 C 1.640625 -0.320312 1.578125 -0.242188 1.515625 -0.171875 C 1.453125 -0.109375 1.378906 -0.0546875 1.296875 -0.015625 C 1.210938 0.0234375 1.101562 0.046875 0.96875 0.046875 Z M 1.078125 -0.25 C 1.265625 -0.25 1.414062 -0.304688 1.53125 -0.421875 C 1.644531 -0.535156 1.703125 -0.695312 1.703125 -0.90625 L 1.703125 -1.28125 L 1.40625 -1.265625 C 1.132812 -1.253906 0.945312 -1.203125 0.84375 -1.109375 C 0.738281 -1.015625 0.6875 -0.875 0.6875 -0.6875 C 0.6875 -0.394531 0.816406 -0.25 1.078125 -0.25 Z "/>
</g>
<g id="glyph-1-0">
<path d="M 0.265625 -1.71875 L 3.234375 -1.71875 L 2.796875 -2.484375 L 2.8125 -2.484375 L 3.78125 -1.53125 L 3.78125 -1.515625 L 2.8125 -0.5625 L 2.796875 -0.5625 L 3.234375 -1.34375 L 0.265625 -1.34375 Z "/>
</g>
</g>
</defs>
<g fill="rgb(53.333333%, 53.333333%, 60%)" fill-opacity="1">
<use xlink:href="#glyph-0-0" x="30" y="25.048828"/>
<use xlink:href="#glyph-0-1" x="34" y="25.048828"/>
<use xlink:href="#glyph-0-2" x="37" y="25.048828"/>
<use xlink:href="#glyph-0-3" x="40" y="25.048828"/>
<use xlink:href="#glyph-0-4" x="43" y="25.048828"/>
<use xlink:href="#glyph-0-5" x="44" y="25.048828"/>
<use xlink:href="#glyph-0-5" x="46" y="25.048828"/>
<use xlink:href="#glyph-0-6" x="48" y="25.048828"/>
<use xlink:href="#glyph-0-7" x="49" y="25.048828"/>
<use xlink:href="#glyph-0-8" x="52" y="25.048828"/>
<use xlink:href="#glyph-0-9" x="55" y="25.048828"/>
<use xlink:href="#glyph-0-10" x="58" y="25.048828"/>
<use xlink:href="#glyph-0-11" x="59" y="25.048828"/>
<use xlink:href="#glyph-0-12" x="62" y="25.048828"/>
<use xlink:href="#glyph-0-13" x="64" y="25.048828"/>
<use xlink:href="#glyph-0-9" x="66" y="25.048828"/>
<use xlink:href="#glyph-0-14" x="69" y="25.048828"/>
<use xlink:href="#glyph-0-15" x="72" y="25.048828"/>
<use xlink:href="#glyph-0-6" x="75" y="25.048828"/>
</g>
<g fill="rgb(53.333333%, 53.333333%, 60%)" fill-opacity="1">
<use xlink:href="#glyph-1-0" x="76" y="25.048828"/>
</g>
</svg>
