<?xml version="1.0" encoding="UTF-8"?>
<svg xmlns="http://www.w3.org/2000/svg" xmlns:xlink="http://www.w3.org/1999/xlink" width="1920" height="1080" viewBox="0 0 1920 1080">
<defs>
<g>
<g id="glyph-0-0">
<path d="M 0.171875 0 L 0.171875 -0.1875 L 0.21875 -0.1875 C 0.320312 -0.1875 0.410156 -0.203125 0.484375 -0.234375 C 0.554688 -0.265625 0.59375 -0.347656 0.59375 -0.484375 L 0.59375 -2.6875 C 0.59375 -2.8125 0.554688 -2.890625 0.484375 -2.921875 C 0.410156 -2.960938 0.320312 -2.984375 0.21875 -2.984375 L 0.171875 -2.984375 L 0.171875 -3.171875 L 1.453125 -3.171875 L 1.453125 -2.984375 L 1.40625 -2.984375 C 1.300781 -2.984375 1.210938 -2.960938 1.140625 -2.921875 C 1.066406 -2.890625 1.03125 -2.800781 1.03125 -2.65625 L 1.03125 -1.40625 L 1.953125 -2.46875 C 2.046875 -2.570312 2.109375 -2.65625 2.140625 -2.71875 C 2.179688 -2.789062 2.203125 -2.847656 2.203125 -2.890625 C 2.203125 -2.929688 2.179688 -2.957031 2.140625 -2.96875 C 2.109375 -2.976562 2.054688 -2.984375 1.984375 -2.984375 L 1.984375 -3.171875 L 2.96875 -3.171875 L 2.96875 -2.984375 C 2.863281 -2.984375 2.765625 -2.945312 2.671875 -2.875 C 2.585938 -2.800781 2.488281 -2.695312 2.375 -2.5625 L 1.71875 -1.84375 L 2.65625 -0.546875 C 2.75 -0.429688 2.832031 -0.34375 2.90625 -0.28125 C 2.988281 -0.21875 3.070312 -0.1875 3.15625 -0.1875 L 3.15625 0 L 3.109375 0 C 2.960938 0 2.835938 -0.00390625 2.734375 -0.015625 C 2.640625 -0.0234375 2.5625 -0.046875 2.5 -0.078125 C 2.4375 -0.109375 2.378906 -0.148438 2.328125 -0.203125 C 2.285156 -0.253906 2.234375 -0.320312 2.171875 -0.40625 L 1.421875 -1.5 L 1.03125 -1.125 L 1.03125 -0.5 C 1.03125 -0.363281 1.066406 -0.273438 1.140625 -0.234375 C 1.210938 -0.203125 1.300781 -0.1875 1.40625 -0.1875 L 1.453125 -0.1875 L 1.453125 0 Z "/>
</g>
<g id="glyph-0-1">
<path d="M 1.28125 0.046875 C 0.957031 0.046875 0.703125 -0.0546875 0.515625 -0.265625 C 0.335938 -0.484375 0.25 -0.785156 0.25 -1.171875 C 0.25 -1.585938 0.332031 -1.898438 0.5 -2.109375 C 0.675781 -2.316406 0.921875 -2.421875 1.234375 -2.421875 C 1.515625 -2.421875 1.738281 -2.332031 1.90625 -2.15625 C 2.070312 -1.976562 2.15625 -1.710938 2.15625 -1.359375 L 2.15625 -1.15625 L 0.671875 -1.15625 C 0.679688 -0.832031 0.738281 -0.597656 0.84375 -0.453125 C 0.957031 -0.304688 1.117188 -0.234375 1.328125 -0.234375 C 1.484375 -0.234375 1.613281 -0.265625 1.71875 -0.328125 C 1.832031 -0.390625 1.914062 -0.460938 1.96875 -0.546875 C 1.988281 -0.535156 2.003906 -0.515625 2.015625 -0.484375 C 2.035156 -0.460938 2.046875 -0.429688 2.046875 -0.390625 C 2.046875 -0.335938 2.019531 -0.273438 1.96875 -0.203125 C 1.914062 -0.140625 1.832031 -0.0820312 1.71875 -0.03125 C 1.601562 0.0195312 1.457031 0.046875 1.28125 0.046875 Z M 1.703125 -1.390625 C 1.703125 -1.628906 1.664062 -1.820312 1.59375 -1.96875 C 1.519531 -2.113281 1.394531 -2.1875 1.21875 -2.1875 C 1.050781 -2.1875 0.921875 -2.117188 0.828125 -1.984375 C 0.742188 -1.847656 0.695312 -1.648438 0.6875 -1.390625 Z "/>
</g>
<g id="glyph-0-2">
<path d="M 0.140625 0 L 0.140625 -0.1875 L 0.15625 -0.1875 C 0.257812 -0.1875 0.347656 -0.203125 0.421875 -0.234375 C 0.492188 -0.273438 0.53125 -0.363281 0.53125 -0.5 L 0.53125 -1.890625 C 0.53125 -2.015625 0.492188 -2.09375 0.421875 -2.125 C 0.347656 -2.164062 0.257812 -2.1875 0.15625 -2.1875 L 0.140625 -2.1875 L 0.140625 -2.375 L 0.828125 -2.375 L 0.921875 -1.9375 L 0.9375 -1.9375 C 0.976562 -2.03125 1.019531 -2.113281 1.0625 -2.1875 C 1.101562 -2.257812 1.160156 -2.316406 1.234375 -2.359375 C 1.304688 -2.398438 1.410156 -2.421875 1.546875 -2.421875 C 1.703125 -2.421875 1.820312 -2.390625 1.90625 -2.328125 C 1.988281 -2.273438 2.03125 -2.195312 2.03125 -2.09375 C 2.03125 -2.007812 1.992188 -1.9375 1.921875 -1.875 C 1.859375 -1.8125 1.753906 -1.78125 1.609375 -1.78125 C 1.609375 -1.90625 1.585938 -1.992188 1.546875 -2.046875 C 1.515625 -2.097656 1.457031 -2.125 1.375 -2.125 C 1.289062 -2.125 1.21875 -2.09375 1.15625 -2.03125 C 1.101562 -1.96875 1.0625 -1.882812 1.03125 -1.78125 C 1 -1.6875 0.972656 -1.582031 0.953125 -1.46875 C 0.941406 -1.363281 0.9375 -1.269531 0.9375 -1.1875 L 0.9375 -0.484375 C 0.9375 -0.347656 0.972656 -0.265625 1.046875 -0.234375 C 1.117188 -0.203125 1.203125 -0.1875 1.296875 -0.1875 L 1.421875 -0.1875 L 1.421875 0 Z "/>
</g>
<g id="glyph-0-3">
<path d="M 0.125 0 L 0.125 -0.1875 L 0.15625 -0.1875 C 0.257812 -0.1875 0.347656 -0.203125 0.421875 -0.234375 C 0.492188 -0.273438 0.53125 -0.363281 0.53125 -0.5 L 0.53125 -1.890625 C 0.53125 -2.015625 0.492188 -2.09375 0.421875 -2.125 C 0.347656 -2.164062 0.265625 -2.1875 0.171875 -2.1875 L 0.140625 -2.1875 L 0.140625 -2.375 L 0.859375 -2.375 L 0.921875 -2.015625 L 0.9375 -2.015625 C 1.03125 -2.179688 1.132812 -2.289062 1.25 -2.34375 C 1.363281 -2.394531 1.492188 -2.421875 1.640625 -2.421875 C 1.867188 -2.421875 2.050781 -2.351562 2.1875 -2.21875 C 2.320312 -2.082031 2.390625 -1.859375 2.390625 -1.546875 L 2.390625 -0.5 C 2.390625 -0.363281 2.414062 -0.273438 2.46875 -0.234375 C 2.53125 -0.203125 2.613281 -0.1875 2.71875 -0.1875 L 2.734375 -0.1875 L 2.734375 0 L 1.96875 0 L 1.96875 -1.53125 C 1.96875 -1.71875 1.929688 -1.863281 1.859375 -1.96875 C 1.785156 -2.082031 1.660156 -2.140625 1.484375 -2.140625 C 1.347656 -2.140625 1.238281 -2.101562 1.15625 -2.03125 C 1.082031 -1.96875 1.023438 -1.878906 0.984375 -1.765625 C 0.953125 -1.660156 0.9375 -1.546875 0.9375 -1.421875 L 0.9375 -0.484375 C 0.9375 -0.347656 0.972656 -0.265625 1.046875 -0.234375 C 1.117188 -0.203125 1.203125 -0.1875 1.296875 -0.1875 L 1.3125 -0.1875 L 1.3125 0 Z "/>
</g>
<g id="glyph-0-4">
<path d="M 0.0625 0 L 0.0625 -0.1875 L 0.109375 -0.1875 C 0.210938 -0.1875 0.300781 -0.203125 0.375 -0.234375 C 0.445312 -0.273438 0.484375 -0.363281 0.484375 -0.5 L 0.484375 -2.890625 C 0.484375 -3.015625 0.445312 -3.09375 0.375 -3.125 C 0.300781 -3.164062 0.210938 -3.1875 0.109375 -3.1875 L 0.0625 -3.1875 L 0.0625 -3.375 L 0.890625 -3.375 L 0.890625 -0.5 C 0.890625 -0.363281 0.925781 -0.273438 1 -0.234375 C 1.070312 -0.203125 1.160156 -0.1875 1.265625 -0.1875 L 1.3125 -0.1875 L 1.3125 0 Z "/>
</g>
<g id="glyph-0-5">
</g>
<g id="glyph-0-6">
<path d="M 1.09375 0.046875 C 0.800781 0.046875 0.585938 0 0.453125 -0.09375 C 0.316406 -0.195312 0.25 -0.316406 0.25 -0.453125 C 0.25 -0.535156 0.273438 -0.601562 0.328125 -0.65625 C 0.378906 -0.707031 0.445312 -0.734375 0.53125 -0.734375 C 0.53125 -0.578125 0.578125 -0.445312 0.671875 -0.34375 C 0.773438 -0.238281 0.914062 -0.1875 1.09375 -0.1875 C 1.21875 -0.1875 1.328125 -0.207031 1.421875 -0.25 C 1.523438 -0.300781 1.609375 -0.378906 1.671875 -0.484375 C 1.734375 -0.585938 1.765625 -0.726562 1.765625 -0.90625 C 1.765625 -1.09375 1.691406 -1.242188 1.546875 -1.359375 C 1.398438 -1.472656 1.203125 -1.53125 0.953125 -1.53125 L 0.8125 -1.53125 L 0.8125 -1.75 L 0.953125 -1.75 C 1.085938 -1.75 1.207031 -1.773438 1.3125 -1.828125 C 1.414062 -1.890625 1.5 -1.972656 1.5625 -2.078125 C 1.625 -2.179688 1.65625 -2.300781 1.65625 -2.4375 C 1.65625 -2.613281 1.617188 -2.75 1.546875 -2.84375 C 1.472656 -2.9375 1.351562 -2.984375 1.1875 -2.984375 C 1.050781 -2.984375 0.945312 -2.953125 0.875 -2.890625 C 0.800781 -2.828125 0.75 -2.742188 0.71875 -2.640625 C 0.695312 -2.546875 0.6875 -2.441406 0.6875 -2.328125 C 0.582031 -2.328125 0.492188 -2.347656 0.421875 -2.390625 C 0.347656 -2.429688 0.3125 -2.507812 0.3125 -2.625 C 0.3125 -2.789062 0.382812 -2.929688 0.53125 -3.046875 C 0.675781 -3.160156 0.894531 -3.21875 1.1875 -3.21875 C 1.46875 -3.21875 1.691406 -3.15625 1.859375 -3.03125 C 2.023438 -2.90625 2.109375 -2.726562 2.109375 -2.5 C 2.109375 -2.375 2.078125 -2.253906 2.015625 -2.140625 C 1.953125 -2.023438 1.867188 -1.925781 1.765625 -1.84375 C 1.660156 -1.769531 1.539062 -1.71875 1.40625 -1.6875 C 1.488281 -1.675781 1.578125 -1.65625 1.671875 -1.625 C 1.765625 -1.601562 1.851562 -1.5625 1.9375 -1.5 C 2.019531 -1.445312 2.085938 -1.367188 2.140625 -1.265625 C 2.191406 -1.171875 2.21875 -1.050781 2.21875 -0.90625 C 2.21875 -0.726562 2.179688 -0.578125 2.109375 -0.453125 C 2.046875 -0.328125 1.957031 -0.226562 1.84375 -0.15625 C 1.738281 -0.0820312 1.617188 -0.03125 1.484375 0 C 1.347656 0.03125 1.21875 0.046875 1.09375 0.046875 Z "/>
</g>
<g id="glyph-0-7">
<path d="M 0 0.53125 L 1.015625 -3.375 L 1.28125 -3.375 L 0.265625 0.53125 Z "/>
</g>
<g id="glyph-0-8">
<path d="M 0.171875 0 L 0.171875 -0.1875 L 0.21875 -0.1875 C 0.320312 -0.1875 0.410156 -0.203125 0.484375 -0.234375 C 0.554688 -0.265625 0.59375 -0.347656 0.59375 -0.484375 L 0.59375 -2.6875 C 0.59375 -2.8125 0.554688 -2.890625 0.484375 -2.921875 C 0.410156 -2.960938 0.320312 -2.984375 0.21875 -2.984375 L 0.171875 -2.984375 L 0.171875 -3.171875 L 1.359375 -3.171875 C 2.117188 -3.171875 2.5 -2.882812 2.5 -2.3125 C 2.5 -2.15625 2.46875 -2.019531 2.40625 -1.90625 C 2.34375 -1.800781 2.257812 -1.71875 2.15625 -1.65625 C 2.0625 -1.59375 1.957031 -1.539062 1.84375 -1.5 L 2.453125 -0.546875 C 2.535156 -0.421875 2.609375 -0.328125 2.671875 -0.265625 C 2.742188 -0.210938 2.828125 -0.1875 2.921875 -0.1875 L 2.9375 -0.1875 L 2.9375 0 L 2.875 0 C 2.6875 0 2.539062 -0.0078125 2.4375 -0.03125 C 2.34375 -0.0507812 2.265625 -0.0859375 2.203125 -0.140625 C 2.140625 -0.203125 2.070312 -0.289062 2 -0.40625 L 1.40625 -1.390625 L 1.03125 -1.390625 L 1.03125 -0.484375 C 1.03125 -0.347656 1.066406 -0.265625 1.140625 -0.234375 C 1.210938 -0.203125 1.300781 -0.1875 1.40625 -0.1875 L 1.453125 -0.1875 L 1.453125 0 Z M 1.34375 -1.609375 C 1.601562 -1.609375 1.78125 -1.664062 1.875 -1.78125 C 1.976562 -1.894531 2.03125 -2.066406 2.03125 -2.296875 C 2.03125 -2.535156 1.976562 -2.703125 1.875 -2.796875 C 1.769531 -2.898438 1.59375 -2.953125 1.34375 -2.953125 L 1.03125 -2.953125 L 1.03125 -1.609375 Z "/>
</g>
<g id="glyph-0-9">
<path d="M 0.171875 0 L 0.171875 -0.1875 L 0.21875 -0.1875 C 0.320312 -0.1875 0.410156 -0.203125 0.484375 -0.234375 C 0.554688 -0.265625 0.59375 -0.347656 0.59375 -0.484375 L 0.59375 -2.6875 C 0.59375 -2.8125 0.554688 -2.890625 0.484375 -2.921875 C 0.410156 -2.960938 0.320312 -2.984375 0.21875 -2.984375 L 0.171875 -2.984375 L 0.171875 -3.171875 L 1.1875 -3.171875 L 2.09375 -0.625 L 3.015625 -3.171875 L 4 -3.171875 L 4 -2.984375 L 3.9375 -2.984375 C 3.832031 -2.984375 3.742188 -2.960938 3.671875 -2.921875 C 3.609375 -2.890625 3.578125 -2.800781 3.578125 -2.65625 L 3.578125 -0.5 C 3.578125 -0.363281 3.609375 -0.273438 3.671875 -0.234375 C 3.742188 -0.203125 3.832031 -0.1875 3.9375 -0.1875 L 4 -0.1875 L 4 0 L 2.8125 0 L 2.8125 -0.1875 L 2.828125 -0.1875 C 2.921875 -0.1875 2.992188 -0.203125 3.046875 -0.234375 C 3.109375 -0.265625 3.140625 -0.34375 3.140625 -0.46875 L 3.140625 -2.828125 L 2.125 0 L 1.890625 0 L 0.859375 -2.828125 L 0.859375 -0.5 C 0.859375 -0.363281 0.882812 -0.273438 0.9375 -0.234375 C 1 -0.203125 1.082031 -0.1875 1.1875 -0.1875 L 1.1875 0 Z "/>
</g>
<g id="glyph-0-10">
<path d="M 0.109375 -1.046875 L 0.109375 -1.375 L 1.265625 -1.375 L 1.265625 -1.046875 Z "/>
</g>
<g id="glyph-0-11">
<path d="M 0.171875 0 L 0.171875 -0.1875 L 0.21875 -0.1875 C 0.320312 -0.1875 0.410156 -0.203125 0.484375 -0.234375 C 0.554688 -0.273438 0.59375 -0.363281 0.59375 -0.5 L 0.59375 -2.6875 C 0.59375 -2.8125 0.554688 -2.890625 0.484375 -2.921875 C 0.410156 -2.960938 0.320312 -2.984375 0.21875 -2.984375 L 0.171875 -2.984375 L 0.171875 -3.171875 L 0.984375 -3.171875 L 2.5625 -0.71875 L 2.5625 -2.6875 C 2.5625 -2.8125 2.523438 -2.890625 2.453125 -2.921875 C 2.390625 -2.960938 2.304688 -2.984375 2.203125 -2.984375 L 2.140625 -2.984375 L 2.140625 -3.171875 L 3.265625 -3.171875 L 3.265625 -2.984375 L 3.203125 -2.984375 C 3.097656 -2.984375 3.007812 -2.960938 2.9375 -2.921875 C 2.875 -2.890625 2.84375 -2.800781 2.84375 -2.65625 L 2.84375 0 L 2.53125 0 L 0.859375 -2.5625 L 0.859375 -0.5 C 0.859375 -0.363281 0.894531 -0.273438 0.96875 -0.234375 C 1.039062 -0.203125 1.125 -0.1875 1.21875 -0.1875 L 1.28125 -0.1875 L 1.28125 0 Z "/>
</g>
<g id="glyph-0-12">
<path d="M 1.09375 0.046875 C 0.800781 0.046875 0.582031 -0.0078125 0.4375 -0.125 C 0.289062 -0.238281 0.21875 -0.390625 0.21875 -0.578125 C 0.21875 -0.671875 0.242188 -0.742188 0.296875 -0.796875 C 0.347656 -0.847656 0.425781 -0.875 0.53125 -0.875 C 0.539062 -0.757812 0.566406 -0.644531 0.609375 -0.53125 C 0.648438 -0.425781 0.710938 -0.335938 0.796875 -0.265625 C 0.878906 -0.203125 0.988281 -0.171875 1.125 -0.171875 C 1.320312 -0.171875 1.476562 -0.21875 1.59375 -0.3125 C 1.707031 -0.414062 1.765625 -0.554688 1.765625 -0.734375 C 1.765625 -0.835938 1.742188 -0.925781 1.703125 -1 C 1.660156 -1.082031 1.585938 -1.15625 1.484375 -1.21875 C 1.390625 -1.28125 1.253906 -1.347656 1.078125 -1.421875 C 0.804688 -1.535156 0.601562 -1.664062 0.46875 -1.8125 C 0.332031 -1.96875 0.265625 -2.164062 0.265625 -2.40625 C 0.265625 -2.570312 0.304688 -2.710938 0.390625 -2.828125 C 0.472656 -2.953125 0.585938 -3.046875 0.734375 -3.109375 C 0.878906 -3.179688 1.046875 -3.21875 1.234375 -3.21875 C 1.492188 -3.21875 1.695312 -3.164062 1.84375 -3.0625 C 1.988281 -2.957031 2.0625 -2.84375 2.0625 -2.71875 C 2.0625 -2.625 2.03125 -2.550781 1.96875 -2.5 C 1.90625 -2.445312 1.820312 -2.421875 1.71875 -2.421875 C 1.71875 -2.515625 1.703125 -2.601562 1.671875 -2.6875 C 1.640625 -2.78125 1.585938 -2.851562 1.515625 -2.90625 C 1.441406 -2.957031 1.34375 -2.984375 1.21875 -2.984375 C 1.039062 -2.984375 0.90625 -2.9375 0.8125 -2.84375 C 0.71875 -2.757812 0.671875 -2.640625 0.671875 -2.484375 C 0.671875 -2.367188 0.691406 -2.269531 0.734375 -2.1875 C 0.773438 -2.101562 0.847656 -2.03125 0.953125 -1.96875 C 1.054688 -1.90625 1.191406 -1.835938 1.359375 -1.765625 C 1.617188 -1.660156 1.820312 -1.535156 1.96875 -1.390625 C 2.113281 -1.253906 2.1875 -1.070312 2.1875 -0.84375 C 2.1875 -0.5625 2.085938 -0.34375 1.890625 -0.1875 C 1.691406 -0.03125 1.425781 0.046875 1.09375 0.046875 Z "/>
</g>
<g id="glyph-0-13">
<path d="M 1.78125 0.046875 C 1.4375 0.046875 1.148438 -0.0195312 0.921875 -0.15625 C 0.691406 -0.289062 0.519531 -0.476562 0.40625 -0.71875 C 0.300781 -0.96875 0.25 -1.257812 0.25 -1.59375 C 0.25 -1.90625 0.304688 -2.179688 0.421875 -2.421875 C 0.546875 -2.671875 0.722656 -2.863281 0.953125 -3 C 1.179688 -3.144531 1.46875 -3.21875 1.8125 -3.21875 C 2.132812 -3.21875 2.375 -3.164062 2.53125 -3.0625 C 2.695312 -2.96875 2.78125 -2.851562 2.78125 -2.71875 C 2.78125 -2.625 2.738281 -2.546875 2.65625 -2.484375 C 2.582031 -2.429688 2.488281 -2.40625 2.375 -2.40625 C 2.375 -2.5 2.351562 -2.585938 2.3125 -2.671875 C 2.28125 -2.753906 2.21875 -2.828125 2.125 -2.890625 C 2.039062 -2.953125 1.925781 -2.984375 1.78125 -2.984375 C 1.40625 -2.984375 1.140625 -2.859375 0.984375 -2.609375 C 0.828125 -2.367188 0.75 -2.03125 0.75 -1.59375 C 0.75 -1.144531 0.832031 -0.800781 1 -0.5625 C 1.164062 -0.320312 1.445312 -0.203125 1.84375 -0.203125 C 1.9375 -0.203125 2.019531 -0.207031 2.09375 -0.21875 C 2.175781 -0.226562 2.25 -0.242188 2.3125 -0.265625 L 2.3125 -0.96875 C 2.3125 -1.101562 2.273438 -1.1875 2.203125 -1.21875 C 2.128906 -1.257812 2.046875 -1.28125 1.953125 -1.28125 L 1.9375 -1.28125 L 1.9375 -1.46875 L 3.078125 -1.46875 L 3.078125 -1.28125 L 3.0625 -1.28125 C 2.976562 -1.28125 2.90625 -1.257812 2.84375 -1.21875 C 2.789062 -1.1875 2.765625 -1.097656 2.765625 -0.953125 L 2.765625 -0.15625 C 2.609375 -0.09375 2.453125 -0.0390625 2.296875 0 C 2.140625 0.03125 1.96875 0.046875 1.78125 0.046875 Z "/>
</g>
<g id="glyph-0-14">
<path d="M 0 0 L 0 -0.1875 L 0.078125 -0.1875 C 0.171875 -0.1875 0.238281 -0.207031 0.28125 -0.25 C 0.320312 -0.289062 0.367188 -0.382812 0.421875 -0.53125 L 1.40625 -3.171875 L 1.75 -3.171875 L 2.75 -0.421875 C 2.78125 -0.328125 2.816406 -0.265625 2.859375 -0.234375 C 2.910156 -0.203125 2.984375 -0.1875 3.078125 -0.1875 L 3.125 -0.1875 L 3.125 0 L 1.90625 0 L 1.90625 -0.1875 L 2.015625 -0.1875 C 2.191406 -0.1875 2.28125 -0.257812 2.28125 -0.40625 C 2.28125 -0.425781 2.273438 -0.445312 2.265625 -0.46875 C 2.265625 -0.5 2.253906 -0.53125 2.234375 -0.5625 L 2.0625 -1.0625 L 0.890625 -1.0625 L 0.734375 -0.59375 C 0.703125 -0.519531 0.6875 -0.457031 0.6875 -0.40625 C 0.6875 -0.257812 0.785156 -0.1875 0.984375 -0.1875 L 1.078125 -0.1875 L 1.078125 0 Z M 0.984375 -1.28125 L 1.984375 -1.28125 L 1.703125 -2.0625 C 1.660156 -2.1875 1.617188 -2.304688 1.578125 -2.421875 C 1.535156 -2.535156 1.503906 -2.648438 1.484375 -2.765625 C 1.460938 -2.648438 1.4375 -2.546875 1.40625 -2.453125 C 1.375 -2.359375 1.332031 -2.238281 1.28125 -2.09375 Z "/>
</g>
<g id="glyph-0-15">
<path d="M 0.171875 0 L 0.171875 -0.1875 L 0.21875 -0.1875 C 0.320312 -0.1875 0.410156 -0.203125 0.484375 -0.234375 C 0.554688 -0.273438 0.59375 -0.363281 0.59375 -0.5 L 0.59375 -2.65625 C 0.59375 -2.800781 0.554688 -2.890625 0.484375 -2.921875 C 0.410156 -2.960938 0.320312 -2.984375 0.21875 -2.984375 L 0.171875 -2.984375 L 0.171875 -3.171875 L 1.453125 -3.171875 L 1.453125 -2.984375 L 1.40625 -2.984375 C 1.300781 -2.984375 1.210938 -2.960938 1.140625 -2.921875 C 1.066406 -2.890625 1.03125 -2.800781 1.03125 -2.65625 L 1.03125 -0.5 C 1.03125 -0.363281 1.066406 -0.273438 1.140625 -0.234375 C 1.210938 -0.203125 1.300781 -0.1875 1.40625 -0.1875 L 1.453125 -0.1875 L 1.453125 0 Z "/>
</g>
</g>
</defs>
<g fill="rgb(53.333333%, 53.333333%, 60%)" fill-opacity="1">
<use xlink:href="#glyph-0-0" x="30" y="24.750977"/>
<use xlink:href="#glyph-0-1" x="33" y="24.750977"/>
<use xlink:href="#glyph-0-2" x="35" y="24.750977"/>
<use xlink:href="#glyph-0-3" x="37" y="24.750977"/>
<use xlink:href="#glyph-0-1" x="40" y="24.750977"/>
<use xlink:href="#glyph-0-4" x="42" y="24.750977"/>
<use xlink:href="#glyph-0-5" x="43" y="24.750977"/>
<use xlink:href="#glyph-0-6" x="44" y="24.750977"/>
<use xlink:href="#glyph-0-5" x="46" y="24.750977"/>
<use xlink:href="#glyph-0-7" x="47" y="24.750977"/>
<use xlink:href="#glyph-0-5" x="48" y="24.750977"/>
<use xlink:href="#glyph-0-8" x="49" y="24.750977"/>
<use xlink:href="#glyph-0-9" x="52" y="24.750977"/>
<use xlink:href="#glyph-0-10" x="56" y="24.750977"/>
<use xlink:href="#glyph-0-11" x="57" y="24.750977"/>
<use xlink:href="#glyph-0-12" x="60" y="24.750977"/>
<use xlink:href="#glyph-0-13" x="62" y="24.750977"/>
<use xlink:href="#glyph-0-14" x="65" y="24.750977"/>
<use xlink:href="#glyph-0-10" x="68" y="24.750977"/>
<use xlink:href="#glyph-0-15" x="69" y="24.750977"/>
<use xlink:href="#glyph-0-15" x="71" y="24.750977"/>
</g>
</svg>
